<?xml version="1.0" standalone="no"?>
<!DOCTYPE svg PUBLIC "-//W3C//DTD SVG 1.1//EN" "http://www.w3.org/Graphics/SVG/1.1/DTD/svg11.dtd" >
<svg xmlns="http://www.w3.org/2000/svg">
<metadata>Generated by IcoMoon</metadata>
<defs>
<font id="ios7-style-font-icons" horiz-adv-x="1024">
<font-face units-per-em="1024" ascent="960" descent="-64" />
<missing-glyph horiz-adv-x="1024" />
<glyph unicode="&#x20;" d="" horiz-adv-x="512" />
<glyph unicode="&#xe600;" d="M968.642 36.636l-321.342 321.534c54.536 63.852 87.414 146.514 87.414 236.97 0 201.434-163.428 364.86-364.86 364.86s-364.86-163.426-364.86-364.86c0-201.432 163.426-364.86 364.86-364.86 90.454 0 173.31 32.876 236.966 87.416l321.534-321.534c5.512-5.51 12.922-8.36 20.146-8.36 7.22 0 14.628 2.85 20.142 8.36 11.212 11.4 11.212 29.264 0 40.474zM152.076 377.366c-57.96 58.148-90.074 135.492-90.074 217.774s32.114 159.626 90.074 217.776c58.15 57.958 135.494 90.074 217.776 90.074s159.626-32.116 217.774-90.074c57.96-58.15 90.076-135.494 90.076-217.776s-32.116-159.626-90.076-217.774c-58.148-58.15-135.492-90.076-217.774-90.076s-159.624 32.116-217.776 90.076zM167.85 566.254c-15.776 0-28.504 12.732-28.504 28.504v0c0 15.774 12.73 28.504 28.504 28.504v0h404.768c15.772 0 28.5-12.732 28.5-28.504v0c0-15.772-12.728-28.504-28.5-28.504v0h-404.768z" />
<glyph unicode="&#xe601;" d="M565.284 624.652h-173.162v172.974c0 15.708-12.68 28.386-28.388 28.386-15.71 0-28.386-12.68-28.386-28.386v-173.162h-173.162c-15.71 0-28.386-12.68-28.386-28.386 0-15.708 12.676-28.388 28.386-28.388h173.162v-173.162c0-15.708 12.676-28.386 28.386-28.386 15.708 0 28.388 12.68 28.388 28.386v173.162h173.162c15.708 0 28.384 12.68 28.384 28.388 0 15.706-12.678 28.574-28.384 28.574zM959.676 40.444l-320.018 320.208c54.31 63.588 87.052 145.91 87.052 235.992 0.002 200.604-162.75 363.356-363.354 363.356-200.602 0-363.356-162.752-363.356-363.356 0-200.604 162.752-363.356 363.356-363.356 90.082 0 172.596 32.738 235.988 87.052l320.208-320.208c5.488-5.486 12.868-8.324 20.062-8.324 7.192 0 14.568 2.838 20.060 8.324 11.168 11.358 11.168 29.148 0.002 40.312zM580.232 379.768c-57.908-57.912-134.932-89.706-216.876-89.706-81.944 0-158.968 31.984-216.878 89.706-57.72 57.908-89.702 134.932-89.702 216.876 0 81.944 31.982 158.968 89.702 216.878 57.912 57.72 134.936 89.704 216.878 89.704 81.944 0 158.968-31.982 216.876-89.704 57.72-57.91 89.706-134.934 89.706-216.878 0-81.944-31.984-158.968-89.706-216.876z" />
<glyph unicode="&#xe602;" d="M314.752 941.424c12.4-46.4 25.2-92.2 37.4-138.6 5.2 10.4 7.6 22.4 10.6 33.8 8.8 33.798 17.8 70 26.8 104.798 17.798 0 35.6 0 53.6 0-18.202-61-37-123.4-55.6-185.798-2.602-9-7.202-17.8-8.4-26-1.6-11.202 0-24.602 0-36.602 0-36 0.6-72.2-0.8-108.398-17.4 0-34.798 0-52 0 0 24.6 0 48.6 0 72.6 0 24.2 2.4 49.2 0 72.6-1.798 18-9 37.2-14 55-15.6 52-36.2 104-52.6 154.4-0.8 1-0.8 1.798 0.8 2.2 18.002 0 36.002 0 54.2 0zM504.752 852.624c54 6 79.2-28 81.6-82.4 0.8-19.202 0-39 0-55 0-36.8 1.4-77.4-10.6-100-16.8-31.8-55.6-43.202-90.2-28.8-14 5.8-25.602 16.202-32.4 30.202-10.8 22.798-9.202 67.2-9.202 101.398 0 63.602-2.398 106.4 36 127.4 6.802 3.8 14.604 6.2 24.802 7.2zM492.152 783.624c-2.6-25.602 0-63.202 0-87.202 0-31.798-3.202-64.798 16.2-71.2 19.6-6.4 28.6 9.4 30.202 26 2.398 22.4 0 55.4 0 81.6 0 34 6.2 79.8-24.602 77.4-14.398-0.798-20.398-12.198-21.8-26.598zM627.952 850.624c15.202 0 30.602 0 45.8 0 1.2-56.202 0.8-114.4 0.8-174.602 0-14.398-3.602-47.2 7-51.398 13.2-5.202 33.798 14.398 35.998 23.2 1.6 6.8 0 17 0 25.4 0 57 0 120.798 0 177.4 15.4 0 31 0 46.4 0 1.202-87 1.202-179 0-266.202-15.4 0-31 0-46.4 0-0.4 9 1 19.6-0.798 27.4-6-3.6-11.6-11.6-19.8-17.6-16-11.8-52.2-23-64.798 2.2-6.4 13-5.6 36.202-5.6 59.202 0 61.798 0 138.398 0 192.798 0.598 0.602 0.398 2.002 1.398 2.202zM922.752 268.424c-0.202 32.6-3.8 72.8-8.4 108.4-2.4 18.2-4 37-9.202 51.4-10.2 28.6-33.6 49.6-62 59.2-15.798 5.202-32.798 4.8-54.2 6.4-36.8 2.6-77 5-114 5.6-79.798 1.202-160.2 5.202-240.798 1.4-35.8-1.8-69 0.2-102.8-2.2-33.4-2.202-66.4-1.8-97.798-4.202-16-1.2-31-0.798-44.4-4.2-39.4-9.8-68-37.8-74.6-81-13-84.202-17.602-196.4-9.202-284.4 3-31.6 4-63.8 12-91.6 13.6-47.4 52.4-69.4 108.4-71.8 18.4-0.8 38.4-2 57.8-2.8 154.2-5.798 319.6-5.398 467.398 1.4 38.6 1.8 78.4 0.202 104.8 13.4 26.2 13 46.2 36 52.798 68.2 14.004 67.802 14.804 146.602 14.204 226.802zM341.952 363.424h-56.398c-2.202-100.6 0.798-206.2-1.4-307-16.202-1.6-35.4-0.2-52.8-0.8-1.6 101-0.2 204.8-0.798 307-17.602 1.602-38.202 0.202-57 0.8v48.6c0 1.202 0.6 1.8 1.398 2.202h166.8c1.398-15.402 1.398-35.602 0.198-50.802zM488.352 56.424c-14.6-1.2-34-1.2-48.6 0v26.8c-5.4-3.8-11.8-11-19.8-16.8-14.398-10.8-47.2-23.8-62.6-2.8-4.6 6.202-7 16.202-7.798 26-5.8 69.602 3 160.602-0.8 231.602 0 1.2 0.6 1.798 1.4 2.2h46.4c1.2-57.2 0.798-118 0.798-178.8 0-17.398-3.6-45 8.4-47.798 13.2-3.202 31.6 14.798 33.8 23.2 1.6 6.6 0 17.6 0 26 0 57-0.602 122 0.798 177.4 15.8-0.4 33.4 1 47.8-0.8v-266.2h0.202zM671.352 195.824c0-22.202 0-42 0-62 0-31.4-1.6-60.8-18.4-74-25-19.8-61.398 1.6-74.6 20.4v-24c-14.798-1.602-32.6-0.202-48.6-0.8v356.6c-1.4-0.2 0.2 2 0.8 2.202h47.2c1.6-36.8 0.2-76.8 0.8-114.8 14.2 17.2 48.398 38.6 74 19.8 24.8-18.602 18.8-75.002 18.8-123.402zM771.352 98.024c28.8-12.4 36.2 22.202 33 50.6h49.2c3.602-47-8.798-74.798-35.798-88.798-26.202-13.4-62.6-9.4-83.8 8.4-28 23.6-25.398 68-25.398 121 0 40-3.4 78.798 11.2 104.2 11.2 19.4 35.4 35.2 69.6 32.4 64.8-5.202 67.8-71.202 64-145.8h-96.4c2.796-29.602-7.204-72.802 14.396-82.002zM622.952 256.424c-0.798 8.2-4.6 19-9.2 22.6-10.4 8-32.2 0.6-35.2-9.2-3-9.8 0-28 0-40.202v-121c7.798-7.6 17.398-15.398 30.2-11.2 7.4 2.4 13 13.4 14 25.4 1.8 19.4 0 42.798 0 66.798 0.2 24.204 2 48.204 0.2 66.804zM777.752 282.424c-21.4-2.4-21.4-35-20.4-61.2 14.4-1.202 33.6-1.202 47.798 0 1.002 29.8 2.202 64.6-27.398 61.2z" />
<glyph unicode="&#xe603;" d="M320.6 846.2c12-44.6 24.4-88.8 36-133.8 5.2 10 7.4 21.6 10.2 32.6 8.4 32.6 17.202 67.6 25.8 101.2 17.2 0 34.4 0 51.6 0-17.6-58.8-35.798-119-53.6-179.4-2.6-8.6-7-17-8.2-25.2-1.602-10.8 0-23.8 0-35.4 0-34.8 0.6-69.6-0.602-104.6-16.798 0-33.6 0-50.2 0 0 23.8 0 46.8 0 70 0 23.4 2.4 47.4 0 70-1.8 17.4-8.6 35.8-13.6 53-14.6 50.6-34.4 100.8-50.202 149.4-0.798 1-0.798 1.6 0.602 2 17.402 0.2 34.802 0.2 52.202 0.2zM504 760.6c52 5.8 76.4-27 78.798-79.4 0.8-18.6 0-37.6 0-53 0-35.4 1.4-74.6-10.2-96.4-16.2-30.6-53.8-41.8-87-27.8-13.6 5.6-24.8 15.6-31.2 29.2-10.4 22-8.8 64.8-8.8 97.8 0 61.2-2.4 102.6 34.6 123 6.402 3.2 14.002 5.6 23.802 6.6zM491.8 694c-2.6-24.6 0-61 0-84.2 0-30.6-3-62.4 15.602-68.6 18.798-6.2 27.6 9 29.2 25.2 2.2 21.6 0 53.4 0 78.8 0 32.8 6 77-23.8 74.8-13.802-1.2-19.602-12.2-21.002-26zM623 758.6c14.798 0 29.398 0 44.2 0 1.2-54.2 0.6-110.4 0.6-168.4 0-14-3.4-45.6 6.8-49.6 12.798-5 32.6 14 34.6 22.4 1.6 6.6 0 16.4 0 24.4 0 55 0 116.6 0 171.2 15 0 29.798 0 44.798 0 1.202-84 1.202-172.8 0-256.8-15 0-29.798 0-44.798 0-0.4 8.6 0.798 19-0.6 26.4-5.8-3.4-11.202-11.2-19-17-15.4-11.4-50.4-22.2-62.4 2-6.202 12.6-5.4 35-5.4 57 0 59.6 0 133.6 0 186.2 0.4 0.6 0.2 2 1.2 2.2zM776.8 249.8c-21.6-2.4-21.6-35-20.4-61.4 14.4-1.202 33.6-1.202 48 0 0.8 29.8 2.2 64.8-27.6 61.4zM621.6 223.6c-0.8 8.202-4.6 19-9.2 22.6-10.4 8-32.4 0.602-35.202-9.2-3-9.8 0-28 0-40.2v-121.4c7.8-7.6 17.4-15.4 30.4-11.202 7.4 2.4 13 13.602 14.2 25.4 1.8 19.6 0 43 0 67-0.198 24.202 1.6 48.402-0.198 67.002zM824 960h-624c-110 0-200-90-200-200v-624c0-110 90-200 200-200h624c110 0 200 90 200 200v624c0 110-90 200-200 200zM340 331h-56.4c-2.2-101 0.8-206.8-1.4-307.8-16.2-1.6-35.6-0.2-53-0.798-1.6 101.2-0.2 205.4-0.798 307.798-17.602 1.6-38.402 0.2-57.202 0.8v48.8c0 1.2 0.6 1.798 1.4 2.2h167.4c1-15.6 1-35.8 0-51zM486.8 23.2c-14.6-1.2-34.2-1.2-48.798 0v26.8c-5.4-3.8-11.8-11-19.8-17-14.4-10.8-47.2-23.8-62.798-2.8-4.602 6.202-7 16.202-7.8 26.202-5.8 69.798 3 161-0.8 232.2 0 1.202 0.602 1.8 1.4 2.202h46.6c1.202-57.4 0.8-118.4 0.8-179.4 0-17.4-3.6-45 8.4-48 13.4-3.202 31.798 14.798 33.798 23.2 1.602 6.8 0 17.6 0 26.202 0 57-0.6 122.398 0.8 177.798 15.8-0.4 33.4 1 48-0.798l0.198-266.606zM670.2 163c0-22.2 0-42.2 0-62.2 0-31.4-1.6-61-18.4-74.202-25.2-19.798-61.6 1.6-74.798 20.4v-24c-14.8-1.6-32.6-0.2-48.8-0.8v357.402c-1.4-0.2 0.202 2 0.8 2.202h47.2c1.6-37 0.202-77 0.8-115 14.4 17.398 48.398 38.798 74.2 19.798 24.998-18.6 18.998-75.2 18.998-123.6zM770.6 64.8c29-12.4 36.2 22.2 33.2 50.798h49.4c3.6-47.2-8.8-74.798-36-89-26.2-13.6-62.8-9.4-84 8.4-28 23.6-25.4 68.2-25.4 121.4 0 40-3.4 79.2 11.202 104.4 11.2 19.398 35.398 35.2 69.798 32.398 64.8-5.2 68-71.398 64.202-146.2h-96.8c2.598-29.596-7.402-72.796 14.398-82.196zM964 448h-904v312c0 37.2 14.6 72.2 41.2 98.8 26.6 26.6 61.6 41.2 98.8 41.2h624c37.2 0 72.2-14.6 98.798-41.2 26.6-26.6 41.202-61.6 41.202-98.8v-312z" />
<glyph unicode="&#xe604;" d="M264.2 731.6l62.2-108.6c9.6-16.8 14.4-37 14.4-56.8 0-19.4-4.6-39-13.8-55.6l-0.6-1-0.6-0.8-134.6-224.4h87.6l163 284.8-95.2 162.4h-82.4zM405.8 336.6l220.4-399.6h85.602l-187.802 344.4c-9 16.6-13.4 36-13.4 55.6 0 19.4 4.4 39 13.4 55.6l308.8 566.4h-86.402l-340.598-622.4z" />
<glyph unicode="&#xe605;" d="M396 635.8h-74.4l8.6-15 38.8-67.8c5-8.8 7.6-19.6 7.6-30.6 0-10.6-2.4-21.2-7.4-29.8l-0.2-0.4-0.204-0.4-93-154.8h78.204l107.4 187.6-65.4 111.2zM538.4 379.8c0 10.6 2.396 21.2 7.2 29.796l200.796 368h-76.6l-217.796-397.996 2.6-4.798 140.2-254.202h76l-125.2 229.4c-4.8 8.6-7.2 19.2-7.2 29.8zM512 960c282.8 0 512-229.2 512-512s-229.204-512-512-512c-282.8 0-512 229.2-512 512 0 282.8 229.2 512 512 512M512 900c-61 0-120.204-12-176-35.4-53.8-22.8-102.2-55.4-143.6-96.8-41.6-41.6-74.2-89.8-96.8-143.6-23.6-55.6-35.4-114.8-35.4-176 0-61 12-120.2 35.4-176 22.8-53.8 55.4-102.2 96.8-143.6 41.6-41.6 89.8-74.2 143.6-96.8 55.6-23.604 114.796-35.4 176-35.4 61 0 120.2 12 176 35.4 53.8 22.8 102.2 55.4 143.6 96.8 41.6 41.6 74.2 89.8 96.796 143.6 23.6 55.602 35.4 114.8 35.4 176 0 61-12 120.202-35.4 176-22.796 53.8-55.4 102.2-96.796 143.6-41.6 41.6-89.8 74.2-143.6 96.8-55.8 23.4-115 35.4-176 35.4v0z" />
<glyph unicode="&#xe606;" d="M1003.6 146c-10 42.8-32.202 73.8-33 75.2l-1.8 2.602-456.8 384.198c33.4 61.6 35.2 128.4 4.798 194.4-22.398 48.6-55.2 81.2-62.2 88-48.198 55.4-165.198 63.6-230.998 63.6-17.4 0-28.4-0.6-28.8-0.6-10-0.6-19-7-22.798-16.6-3.8-9.4-1.6-20.2 5.6-27.6l119-122.4-4.8-114.4-114.402-1.6-119 122.6c-7.202 7.4-17.8 9.8-27.4 6.4s-16.2-12.2-17.2-22.4c-0.2-2-4-48.8 0.202-103.4 5.798-76.4 24.4-129.6 55.2-158 10.6-11.8 83.202-89 185.202-89v0c32.6 0 64.798 8 95.798 23.8l378-460.8 2.4-1.8c1.2-1 31.798-24 74.2-35.2 16-4.2 31.4-6.4 46.4-6.4 40.6 0 77.6 15.4 108.6 45.6 42.798 41 57.798 94.4 43.798 153.8zM254.4 479c-83.8 0-146.4 71.4-147 72.2-0.8 0.8-1.602 1.8-2.4 2.6-29 25.8-39.6 97-41 159.2l84-86.4c5-5.2 11.798-8 19-7.8l150.2 2.2c13.8 0.2 25 11.2 25.6 24.8l6.4 150c0.4 7.2-2.4 14.2-7.4 19.2l-83.8 86.2c78.6-3.6 136.6-20 157.798-45.4 0.8-0.8 1.602-1.8 2.4-2.6 0.4-0.2 32-29.4 52-73.8 25-55.6 21-109.4-12.2-160.2l-117.8-114.4c-27.798-17.2-56.798-25.8-85.798-25.8v0zM923.8 29.2c-64.4-62.6-144.798-11.6-159.4-1.6l-372.6 454.4 87.8 85.4 450.4-379c10.2-15.4 58-96.8-6.2-159.2z" />
<glyph unicode="&#xe607;" d="M900.742 908.128c-2.088 0-3.978-0.19-6.254-0.568l-386.812-65.924v-350.826h424.324v385.306c0 18.562-13.638 32.012-31.258 32.012zM875.17 547.832h-310.666v245.88l310.666 52.85v-298.73zM507.676 56.068l387.006-67.624c2.084-0.378 4.168-0.572 6.252-0.572 17.616 0 31.060 13.26 31.060 32.014v385.116h-424.318v-348.934zM564.504 348.172h310.666v-298.544l-310.666 54.372v244.172zM0 189.428c0-20.836 16.856-40.726 37.318-44.328l384.354-67.246v327.148h-421.672v-215.574zM56.83 348.172h308.014v-202.69l-308.014 53.796v148.894zM0 710.93v-219.928h421.672v329.61l-384.354-65.354c-20.46-3.6-37.318-23.49-37.318-44.328zM56.83 700.89l308.014 52.472v-205.532h-308.014v153.060z" />
<glyph unicode="&#xe608;" d="M900.812 907.142c-2.082 0-3.972-0.19-6.24-0.568l-385.984-65.78v-350.074h423.412v384.476c0 18.524-13.608 31.946-31.188 31.946zM508.586 56.91l386.176-67.48c2.078-0.382 4.158-0.57 6.238-0.57 17.578 0 30.996 13.23 30.996 31.946v384.288h-423.41v-348.184zM2 189.984c0-20.792 16.82-40.64 37.238-44.234l383.53-67.102v326.446h-420.768v-215.11zM2 710.366v-219.456h420.768v328.902l-383.53-65.214c-20.416-3.592-37.238-23.438-37.238-44.232z" />
<glyph unicode="&#xe609;" d="M515.988 949.212c5.708 0 11.59-4.458 15.868-13.196l424.552-849.098c8.734-17.476-0.182-31.918-19.794-31.918h-841.43c-19.614 0-28.53 14.264-19.794 31.918l424.552 849.098c4.458 8.738 10.164 13.196 16.046 13.196M515.988 848.29l-369.986-739.798h739.796l-369.81 739.798zM465.35 215.834c0 25.854 19.080 46.894 50.46 46.894 29.602 0 48.682-21.042 48.682-46.894 0-26.568-19.794-46.894-49.926-46.894-30.138 0-48.504 20.326-49.216 46.894zM542.022 611.854c11.054 0 20.148-9.092 20.148-20.148v-247.848c0-11.054-9.094-20.148-20.148-20.148h-53.492c-11.056 0-20.148 9.094-20.148 20.148v247.848c0 11.056 9.092 20.148 20.148 20.148h53.492z" />
<glyph unicode="&#xe60a;" d="M535.8 878.4c-4.798 0-10.398-2.2-16.398-6.8l-334.602-258c-8.8 14-24.6 26.4-52.8 26.4h-35.6c0 0-7.202 0-28.4 0-64 0-64-64-64-64v-256c0 0 0-64 64-64s0 0 64 0c28.2 0 44 12.4 52.798 26.4l334.602-258c6-4.6 11.6-6.8 16.398-6.8 9.202 0 15.202 8 15.202 22.4v816c0 14.4-6.2 22.4-15.2 22.4zM134.8 316.202c-0.8 0-1.6-0.202-2.8-0.202h-64c-1.202 0-2.202 0-2.8 0.202-0.6 1.398-1 3.398-1.2 5v253.598c0.2 1.6 0.6 3.6 1.2 5 0.8 0 1.6 0.2 2.8 0.2h64c1.2 0 2.2 0 2.798-0.2 0.602-1.4 1-3.4 1.202-5v-38c0-0.2 0-0.6 0-0.8v-176c0-0.2 0-0.6 0-0.798v-38c-0.2-1.602-0.6-3.602-1.2-5zM491 122l-286.6 221c-3.202 3-8 12.6-8.4 17.202v176c0.6 4.6 5.2 14 8.4 17.2l286.6 220.598v-652zM672.6 359.6c0 13.6 11 24.6 24.6 24.6v0c17.6 0 33.4 7.2 45.2 18.602v0c11.6 11.598 18.6 27.398 18.6 45.2v0c0 17.6-7.2 33.4-18.6 45.2v0c-11.6 11.6-27.4 18.6-45.2 18.6v0c-13.6 0-24.6 11-24.6 24.6v0c0 13.6 11 24.6 24.6 24.6v0c62.4 0 112.798-50.6 113-113v0c0-62.4-50.6-112.8-113-113v0 0c-13.6 0.198-24.6 11.198-24.6 24.598v0zM674.2 151.602c0 13.6 11 24.6 24.6 24.6v0c75 0 142.8 30.4 192 79.6v0c49.202 49.202 79.6 117 79.6 192v0c0 75-30.4 142.8-79.6 192v0c-49.2 49.2-117 79.6-192 79.6v0c-13.6 0-24.6 11-24.6 24.6v0c0 13.6 11 24.6 24.6 24.6v0c177.202 0 320.6-143.6 320.6-320.6v0c0-177.2-143.6-320.6-320.6-320.6v0c-13.6-0.2-24.6 10.8-24.6 24.2v0zM672.6 258.202c0 13.6 11 24.6 24.6 24.6v0c45.798 0 86.798 18.4 116.798 48.4v0c30 30 48.4 71.2 48.4 116.798v0c0 45.8-18.4 86.8-48.4 116.8v0c-30 30-71.2 48.4-116.798 48.4v0c-13.6 0-24.6 11-24.6 24.6v0c0 13.6 11 24.6 24.6 24.6v0c118.4 0 214.4-96 214.4-214.4v0c0-118.4-96-214.4-214.4-214.4v0c-13.6 0-24.6 11-24.6 24.602v0z" />
<glyph unicode="&#xe60b;" d="M700.3 878.4c-4.796 0-10.398-2.2-16.398-6.8l-334.602-258c-8.796 14-24.6 26.4-52.796 26.4h-35.6c0 0-7.204 0-28.4 0-64 0-64-64-64-64v-256c0 0 0-64 64-64s0 0 64 0c28.2 0 44 12.4 52.796 26.4l334.602-258c6-4.6 11.6-6.8 16.398-6.8 9.204 0 15.204 8 15.204 22.4v816c-0.004 14.4-6.204 22.4-15.204 22.4zM299.3 316.204c-0.796 0-1.6-0.204-2.796-0.204h-64c-1.204 0-2.204 0-2.8 0.204-0.6 1.396-1 3.396-1.2 5v253.596c0.2 1.6 0.6 3.6 1.2 5 0.8 0 1.6 0.2 2.8 0.2h64c1.2 0 2.2 0 2.796-0.2 0.604-1.4 1-3.4 1.204-5v-38c0-0.2 0-0.6 0-0.8v-176c0-0.2 0-0.6 0-0.796v-38c-0.204-1.604-0.604-3.604-1.204-5zM655.5 122l-286.6 221c-3.204 3-8 12.6-8.4 17.204v176c0.6 4.6 5.2 14 8.4 17.2l286.6 220.596v-652z" />
<glyph unicode="&#xe60c;" d="M640.802 878.4c-4.8 0-10.398-2.2-16.398-6.8l-334.604-258c-8.798 14-24.6 26.4-52.798 26.4h-35.6c0 0-7.202 0-28.4 0-64 0-64-64-64-64v-256c0 0 0-64 64-64s0 0 64 0c28.2 0 44 12.4 52.798 26.4l334.602-258c6-4.6 11.598-6.8 16.398-6.8 9.2 0 15.2 8 15.2 22.4v816c0 14.4-6.198 22.4-15.198 22.4zM239.8 316.202c-0.798 0-1.6-0.202-2.798-0.202h-64c-1.202 0-2.202 0-2.8 0.202-0.6 1.398-1 3.398-1.2 5v253.598c0.2 1.6 0.6 3.6 1.2 5 0.8 0 1.6 0.2 2.8 0.2h64c1.2 0 2.2 0 2.798-0.2 0.602-1.4 1-3.4 1.202-5v-38c0-0.2 0-0.6 0-0.8v-176c0-0.2 0-0.6 0-0.798v-38c-0.202-1.602-0.6-3.602-1.202-5zM596 122l-286.598 221c-3.202 3-8 12.6-8.4 17.202v176c0.6 4.6 5.2 14 8.4 17.2l286.598 220.598v-652zM777.602 359.4c0 13.6 11 24.6 24.598 24.6v0c17.602 0 33.402 7.2 45.2 18.602v0c11.6 11.598 18.6 27.398 18.6 45.198v0c0 17.6-7.2 33.4-18.602 45.2v0c-11.598 11.6-27.398 18.6-45.2 18.6v0c-13.598 0-24.598 11-24.598 24.6v0c0 13.6 11 24.6 24.598 24.6v0c62.402 0 112.8-50.6 112.8-113v0c0-62.4-50.602-112.8-112.8-113v0 0c-13.596 0.2-24.596 11.2-24.596 24.6v0z" />
<glyph unicode="&#xe60d;" d="M478.194 15.9c-59.398 0-107.2 34.6-142 103l-0.6 1.6c-0.6 1.4-55 139-84.6 276.398-14.4 66.8-29.2 116.602-45.4 152.402-16.798 37.2-35 57.8-51.2 57.8-6.8 0-14.4-3.2-22.6-9.6l-51.602-43.4-70.798 87.6 12.2 11.4c0.6 0.6 53.8 50.8 113.202 101.2 103.2 87.8 140.6 104.8 158.798 107.8 6.4 2.8 21 8 40 8 22.8 0 56.202-7.8 86.202-45 30.798-38.2 52.2-100.4 63.398-185 7.4-55.2 19.8-134.2 38-198.202 25.8-90.798 46.8-91.798 47-91.798 3.8 0 11.602 5.4 21.4 20.4l0.8 1.2c0.4 0.4 35.798 46.4 66.398 100.4 37 65.4 51.602 116.4 40 140-2.398 4.8-9.398 19-47.398 19-16.8 0-37.6-2.8-61.6-8.6l-32.4-7.6 11.2 31.2c0.8 2.4 21.4 58.8 64 115.8 58.2 77.4 129.2 118.2 205.6 118.2 31 0 63.4-6.8 96.202-20 19.398-7.8 56.798-37.6 73.798-99.6 22.202-81 11.202-226.8-167.6-462-11-15.6-199-282.6-360.4-282.6zM368.594 134.5c28.6-55.6 64.4-82.6 109.6-82.6 58.4 0 133.602 45.6 217.8 131.798 65.4 67 112.6 134.8 113.2 135.6l0.4 0.602c75.8 99.798 127 191 151.6 271.2 19 61.4 22.4 115.2 10 159.8-13.798 50-43.2 72-52.6 75.8-28.4 11.6-56.2 17.4-82.6 17.4-65.202 0-124.4-34.6-175.8-103.2-21-28-36.4-56.2-46.2-76.8 13 2 24.798 2.8 35.6 2.8 40.2 0 67-13.2 79.6-39.2 18-36.6 4.4-93.4-41.2-174-30.4-53.398-64.202-98-68.6-103.798-16-24.4-32.8-36.202-51.202-36.202-32.798 0-58.798 37.4-81.6 118-18.798 66-31.6 147-39.2 203.4-17 128.2-57.6 198.8-114 198.8-15.4 0-26.4-5.4-26.6-5.6l-3.202-1.6-3.6-0.4c-6.4-0.6-36-9.4-142.2-99.8-41.602-35-80.4-70.6-99.4-88.2l26.6-33 24.4 20.6c14.798 11.4 30 17.2 44.798 17.2 32.602 0 60-25.8 84-79 17.202-38 32.8-90.2 47.8-159.6 28.006-129.4 78.206-258.8 82.606-270z" />
<glyph unicode="&#xe60e;" d="M915.672 832.2c-29 11.8-57.6 17.8-84.798 17.8-66.602 0-129.202-36.8-181.202-106.2-25.2-33.6-42-66.8-51.2-87.4 17 3.2 32.4 4.6 46 4.6 37.6 0 62.6-12 74.2-35.8 16.8-34 3-90.6-40.798-168-29.8-52.8-64.202-98-68.4-103.4l-0.2-0.202c-14.8-22.6-30-33.6-46.202-33.6-9.4 0-23.4 4.2-38.2 24.2-13.402 18.202-26 48.4-37.802 89.4-18.6 65.6-31.6 146.4-39 202.4-10.6 79-29.798 136.4-57 170.2-18 22.4-39.2 33.8-62.798 33.8-13.8 0-24.202-4-28-5.6l-3.4-1.4-3.6-0.6c-11.8-2-46.4-17.8-144.602-101-45-38.2-86.798-76.8-103.798-92.6l34-42.2 28 23.8 0.6 0.6 0.6 0.4c13.6 10.4 27.4 15.6 40.8 15.6 29.6 0 56-25.4 78.6-75.4 17-37.6 32.6-89.4 47.4-158.4 28-130.2 79-261.2 82.798-271v-0.2c29.602-58 67.202-86 115-86 58.202 0 132.602 43.8 215.402 126.6 66.798 67 115 135.4 120.4 143l0.4 0.6 0.398 0.602c78.202 102.798 130 196.798 154.202 279.2 17.6 60 20.4 112.6 8.2 156.8-14.4 52.4-45.198 75-56 79.4zM512.7 447.8c-0.4 0.2-1 0.2-1.4 0.398 0.6 0.002 1-0.198 1.4-0.398z" />
<glyph unicode="&#xe60f;" d="M916.614 97.738c-0.006 1.606-0.208 3.004-0.606 4.406 0 0.2 0 0.2 0 0.398-3.4 19-9 36.402-14.604 51.2 0 0.204-28.796 54.8-85 92.8-3.6 2.402-7.2 4.602-10.796 6.402-29 15-61.8 26-92 39-28.702 12.3-54.902 26.714-73.438 47.3 8.904 8.664 17.352 18.286 25.252 28.852 38.416 51.376 59.572 119.216 59.572 191.022s-21.156 139.646-59.572 191.024c-40.368 53.986-94.856 83.718-153.426 83.718s-113.060-29.732-153.426-83.718c-38.416-51.378-59.574-119.218-59.574-191.024s21.158-139.646 59.574-191.022c9.516-12.73 19.828-24.090 30.784-34.050-18.344-33.316-97.876-54.172-138.138-72.106-71.6-32.402-128.796-70-144.2-158.402v-10.598c0.6-12.8 4.4-30.8 25.6-30.8h755.798c19.598 0 30.798 14.802 28.2 35.598zM358.996 559.12c0 58.94 16.914 114.020 47.624 155.092 28.762 38.464 66.184 59.648 105.376 59.648s76.612-21.184 105.374-59.648c30.71-41.074 47.624-96.154 47.624-155.092 0-58.94-16.914-114.018-47.624-155.092-28.762-38.464-66.184-59.648-105.374-59.648s-76.614 21.184-105.376 59.648c-30.71 41.074-47.624 96.15-47.624 155.092zM159.412 111.542c4.398 23 15.2 40.8 30 55.8 24.398 24.796 60.398 41.2 98 56.398 37.398 15.204 76.2 28.8 105.6 49 15.622 10.636 26.814 20.868 34.514 33.778 26.246-14.516 54.834-22.14 84.47-22.14 29.266 0 57.512 7.422 83.49 21.586 8.524-12.394 20.526-22.964 33.722-32.024 20.6-14 44.202-24.8 64-33 39.798-16.602 78.6-29.398 109.2-48.8 29-18.398 50.8-41.796 61.4-80.2l-704.396-0.398z" />
<glyph unicode="&#xe610;" d="M916.614 97.738c-0.006 1.606-0.208 3.004-0.606 4.406 0 0.2 0 0.2 0 0.398-3.4 19-9 36.402-14.604 51.2 0 0.204-28.796 54.8-85 92.8-3.6 2.402-7.2 4.602-10.796 6.402-29 15-61.8 26-92 39-28.702 12.3-54.902 26.714-73.438 47.3 8.904 8.664 17.352 18.286 25.252 28.852 38.416 51.376 59.572 119.216 59.572 191.022s-21.156 139.646-59.572 191.024c-40.368 53.986-94.856 83.718-153.426 83.718s-113.060-29.732-153.426-83.718c-38.416-51.378-59.574-119.218-59.574-191.024s21.158-139.646 59.574-191.022c9.516-12.73 19.828-24.090 30.784-34.050-18.344-33.316-97.876-54.172-138.138-72.106-71.6-32.402-128.796-70-144.2-158.402v-10.598c0.6-12.8 4.4-30.8 25.6-30.8h755.798c19.598 0 30.798 14.802 28.2 35.598z" />
<glyph unicode="&#xe611;" d="M552.398 900.9c10.8 0 19.402-8.8 19.402-19.4v-58.6c0-10.8 8.598-20.8 19.2-22.4 0 0 104-16 142.8-33.6l-28.2-106.6c-2-7.6-8-12.2-15-12.2-2.402 0-5 0.6-7.602 1.8 0 0-62.398 30.4-142.2 30.4-72.2 0-95.402-32.2-95.402-63.2 0-35.6 38.8-60 134.202-94.4 132-46.6 184.2-107.598 184.2-208.598 0-98.8-68.8-183.204-196.402-204.204v-94.796c0-10.8-8.796-19.402-19.398-19.402h-70.8c-10.8 0-19.4 8.8-19.4 19.402v66.2c0 10.8-8.6 21-19.2 22.598 0 0-127.202 21.204-169.4 44.602l28.4 111c2 7.8 8.398 12.602 15.6 12.602 2.4 0 4.798-0.402 7.2-1.602 0 0 94.202-41 166.4-41 64.4 0 107.598 25.602 107.598 68.8 0 42.2-35.598 68.8-118.798 96.598-118.8 40-199.8 95.402-199.8 203 0 98.8 68.8 175.4 187.6 197.6v85.8c0 10.8 8.8 19.4 19.4 19.4h69.598M552.398 959.3h-69.798c-43 0-78-35-78-78v-40.6c-49.202-16-91-41.8-122.602-75.4-42.2-45.4-64.798-103.4-64.798-167.4 0-67.4 25-124.6 74.2-170 38.4-35.398 91-63.598 165.4-88.598v0 0c35.4-11.8 60-23 72.598-33 4.602-3.8 5.8-5.8 6-6.2 0.204-0.204 0.204-1 0.204-1.402-3.402-3-17.8-10.8-49.202-10.8-49.2 0-120 26.204-143 36.204-9.798 4.2-20 6.398-30.4 6.398-34 0-63.6-23.2-72.2-56.602l-28.4-110.796-11.2-43.8 39.6-22c22.8-12.602 60.8-24.602 116.2-37 15.602-3.402 30.4-6.402 42.4-8.8v-36.8c0-43 35-78 78-78h71c43 0 78 35 78 78v48.596c52.602 16 97 43.2 130.602 79.598 21.398 23.402 38 50 49.2 79.402 11 28.8 16.602 59.598 16.602 91.398 0 66-18.602 119.402-57 163.2-36.2 41.4-89 73.2-166 100.4-33.2 12-57.602 22.2-74.402 31-7 3.6-12 6.8-15.598 9.2 5.598 2 15.4 4 31.4 4 64.602 0 116.2-24.2 116.8-24.4 10.398-5 21.8-7.8 33.2-7.8 16.602 0 32.8 5.6 45.602 16 12.598 10 21.398 23.8 25.8 39.6l28.2 106.6 12.398 47.8-44.8 20.4c-31.796 14.6-90.796 26.6-127.796 33.2v28.4c-0.21 43.002-35.21 78.002-78.21 78.002v0z" />
<glyph unicode="&#xe612;" d="M542 920.3v-637h-60v637zM512 960.5c17.802 0 35.802-6.8 49.6-20.4v0l163.8-163.8-42.4-42.4-163.8 163.8c-2 2-4.398 2.8-7 2.8v0c-2.798 0-5.2-1-7-2.8v0l-163.798-163.8-42.6 42.4 163.798 163.8c13.598 13.6 31.598 20.4 49.4 20.4v0 0 0zM837 639.5h-179v-60h162.6v-584h-617.2v584h164.6v60h-181c-24 0-43.6-18-43.6-40v-624c0-22 19.6-40 43.6-40h650c24 0 43.6 18 43.6 40v624c0.2 22-19.6 40-43.6 40z" />
<glyph unicode="&#xe613;" d="M542 920.3v-637h-60v637zM512 960.5c17.802 0 35.802-6.8 49.6-20.4v0l163.8-163.8-42.4-42.4-163.8 163.8c-2 2-4.398 2.8-7 2.8v0c-2.798 0-5.2-1-7-2.8v0l-163.798-163.8-42.6 42.4 163.798 163.8c13.598 13.6 31.598 20.4 49.4 20.4v0 0 0zM837 639.5h-179v-356.2c0-23.8-11.6-46.8-32-63.602-20.4-16.798-48.6-26.398-77.4-26.398h-73c-28.798 0-57 9.6-77.4 26.398-20.398 16.8-30 40-30 63.602v356.2h-181.2c-24 0-43.6-18-43.6-40v-624c0-22 19.6-40 43.6-40h650c24 0 43.6 18 43.6 40v624c0.2 22-19.6 40-43.6 40z" />
<glyph unicode="&#xe614;" d="M328.3 265.6v-50.4c0-22.798 18.4-41.2 41.202-41.2 22.798 0 41.2 18.4 41.2 41.2v50.4c14 11.8 22.8 29.4 22.8 49 0 35.4-28.6 64-64 64s-64-28.6-64-64c-0.002-19.6 8.798-37.2 22.798-49zM1007.5 546.6c0 0 0 106.6 0 169.4 0 21.2-5.8 43.2-16 65-15.4 32.6-41.4 64.8-77.8 89.2-36.4 24.6-83.6 40.8-138.8 40.8-73.798 0-132.798-28.6-172.398-66.8-19.8-19.2-35-40.6-45.4-62.4s-16.2-44-16.2-65.8v-155h-484.402c-22 0-40-18-40-40v-496c0-22 18-40 40-40h624c22 0 40 18 40 40v496c0 22-18 40-40 40h-79.6v155c0 10.4 3.2 24.8 10.398 39.8 10.8 22.8 30.202 46.8 57.6 64.8 27.4 18 62.202 30.4 106 30.4 58.202-0.2 100.602-22 129.8-50.4 14.6-14.2 25.4-30 32.6-45.2 7.202-15 10.202-29.4 10.202-39.4 0-62.6 0-169.4 0-169.4h60zM660.5 501v-456h-584v456h584z" />
<glyph unicode="&#xe615;" d="M824 561h-486.4v155c0 10.4 3.2 24.8 10.4 39.8 10.798 22.8 30.4 46.8 57.6 64.8 27.4 18 62.2 30.4 106 30.4 58.2-0.2 100.6-22 129.8-50.4 14.6-14.2 25.398-30 32.6-45.2 7.2-15 10.2-29.4 10.2-39.4v-28h60v28c0 21.2-5.798 43.2-16 65-15.4 32.6-41.4 64.8-77.798 89.2-36.202 24.6-83.4 40.8-138.8 40.8-73.8 0-132.8-28.6-172.4-66.8-19.6-19.2-34.798-40.6-45.2-62.4s-16.202-44-16.202-65.8v-155h-77.8c-22 0-40-18-40-40v-496c0-22 18-40 40-40h624c22 0 40 18 40 40v496c0 22-18 40-40 40zM804 45h-584v456h584v-456zM471.8 265.6v-50.4c0-22.798 18.4-41.2 41.202-41.2 22.798 0 41.2 18.4 41.2 41.2v50.4c14 11.8 22.8 29.4 22.8 49 0 35.4-28.6 64-64 64s-64-28.6-64-64c-0.002-19.6 8.798-37.2 22.798-49z" />
<glyph unicode="&#xe616;" d="M127.966 832.344c10.274 10.274 26.816 10.274 36.916 0v0l243.776-243.776c10.27-10.272 10.27-26.814 0-36.914v0c-10.274-10.274-26.816-10.274-36.916 0l-243.776 243.776c-5.050 5.048-7.662 11.84-7.662 18.458v0c0 6.616 2.612 13.408 7.662 18.456v0zM495.598 391.646l-25.4-48.26 18.142-9.616c10.522-5.444 18.144-14.876 21.772-26.306 3.628-11.43 2.54-23.586-3.084-33.926l-135.89-258.538c-5.442-10.522-14.876-18.142-26.304-21.772s-23.586-2.542-33.924 3.086l-140.61 74.206c-10.526 5.444-18.14 14.876-21.772 26.306-3.626 11.432-2.54 23.584 3.082 33.926l135.89 258.538c5.442 10.524 14.876 18.14 26.304 21.772 11.432 3.628 23.586 2.542 33.93-3.084l18.14-9.618 25.4 48.262-18.142 9.616c-24.128 12.7-51.164 14.334-75.474 6.894-24.308-7.8-45.718-24.494-58.418-48.622l-135.89-258.538c-25.4-48.266-6.712-108.312 41.544-133.712l140.792-74.022c24.13-12.704 51.164-14.334 75.472-6.894 24.31 7.438 45.542 24.308 58.242 48.26l135.884 258.538c25.398 48.26 6.712 108.312-41.542 133.71l-18.144 9.794zM575.242 443.174c25.396-48.26 85.454-66.948 133.71-41.544l258.534 135.886c24.128 12.7 40.822 34.108 48.26 58.238 7.444 24.31 5.804 51.344-6.892 75.474l-74.022 140.788c-25.4 48.26-85.456 66.948-133.712 41.548l-258.352-135.89c-24.13-12.7-40.822-34.108-48.262-58.238-7.438-24.312-5.804-51.344 6.896-75.474l9.618-18.142 48.26 25.4-9.618 18.142c-5.444 10.522-6.534 22.498-3.082 33.926 3.624 11.43 11.246 20.684 21.77 26.306l258.536 135.89c10.522 5.442 22.496 6.53 33.926 3.084 11.43-3.628 20.868-11.248 26.308-21.77l74.022-140.788c5.446-10.522 6.534-22.498 3.084-33.926-3.626-11.43-11.248-20.682-21.772-26.306l-258.716-135.888c-10.524-5.444-22.496-6.53-33.926-3.084-11.428 3.626-20.682 11.25-26.304 21.772l-9.618 18.142-48.262-25.4 9.614-18.146z" />
<glyph unicode="&#xe617;" d="M173 408.202h-60c0-1.202 0-2.202 0-3.4 0-2 0-4.2 0-6.2 0-1.602 0.2-3.202 0.2-4.8s0.202-3.2 0.202-4.8c0-1.798 0.2-3.398 0.2-5.2 0-1.4 0.2-3 0.2-4.4 0.202-1.798 0.202-3.6 0.4-5.2 0.202-1.4 0.202-2.8 0.4-4.2 0.2-1.8 0.4-3.602 0.6-5.4 0.202-1.4 0.4-2.8 0.4-4 0.2-1.8 0.4-3.6 0.6-5.4 0.202-1.2 0.4-2.6 0.6-3.8 0.202-1.798 0.602-3.798 0.8-5.6 0.2-1.2 0.4-2.4 0.6-3.6 0.4-2 0.6-3.8 1-5.8 0.202-1 0.4-2 0.6-3 2-10.2 4.4-20.398 7-30.398 0.202-0.8 0.4-1.4 0.602-2.202 0.6-2 1.2-4.2 1.798-6.2 0.202-0.8 0.6-1.8 0.8-2.6 0.6-2 1.2-4 1.798-6 0.202-1 0.602-1.8 0.8-2.8 0.6-2 1.4-4 2-6 0.4-0.8 0.6-1.8 1-2.6 0.8-2 1.4-4 2.2-6 0.4-0.8 0.602-1.6 1-2.4 0.8-2 1.602-4 2.4-6.2 0.202-0.602 0.6-1.4 0.8-2 0.798-2.202 1.798-4.4 2.798-6.4 0.202-0.202 0.202-0.6 0.4-0.8 4.4-10.4 9.4-20.4 14.6-30.4 0-0.2 0.202-0.2 0.202-0.398 1.2-2.202 2.4-4.4 3.6-6.602 0.2-0.398 0.4-0.798 0.8-1.2 1.2-2 2.398-4.2 3.6-6.2 0.2-0.4 0.6-1 0.798-1.4 1.202-2 2.4-4 3.8-6 0.2-0.4 0.6-1 1-1.4 1.2-2 2.6-4 4-6.2 0.2-0.402 0.6-0.8 0.8-1.202 1.398-2.202 2.798-4.202 4.2-6.4 0.2-0.2 0.2-0.398 0.4-0.398 11.2-16.402 23.798-32 37.4-46.602l0.2-0.2c1.8-2 3.8-4 5.8-6l0.2-0.2c72.402-74.2 173.602-120.2 285.402-120.2 220.398-0.6 399 178 399 398.4s-178.602 399-399 399c-3.202 0-6.4 0-9.6-0.2-0.8 0-1.602 0-2.4 0-2.6 0-5.4-0.2-8-0.4-0.6 0-1.202 0-1.6 0-3.202-0.2-6.4-0.4-9.602-0.6-0.6 0-1 0-1.6-0.2-2.798-0.2-5.6-0.4-8.2-0.8-0.6 0-1.202-0.2-2-0.2-6.4-0.6-12.8-1.6-19.202-2.6-0.6 0-1-0.2-1.6-0.2-3-0.4-6-1-9-1.6-0.2 0-0.2 0-0.4 0-3.2-0.6-6.6-1.2-9.798-2-0.202 0-0.4-0.2-0.8-0.2-3-0.6-6-1.4-9-2-0.4 0-0.6-0.2-1-0.2-6.4-1.6-12.798-3.2-19-5-0.2 0-0.4-0.2-0.798-0.2-68.202-20.2-128.8-58.2-176.4-108.6v174c0 16.6-13.4 30-30 30s-30-13.4-30-30v-286h286c16.6 0 30 13.4 30 30s-13.4 30-30 30h-192.2c0.4 0.6 1 1.2 1.4 1.8 1.4 1.6 3 3.2 4.4 5 1.2 1.4 2.4 2.6 3.6 4 1.4 1.4 2.8 2.8 4.202 4.2 1.398 1.6 3 3 4.6 4.6 0.6 0.6 1 1 1.6 1.6 2 2 4.2 4 6.2 5.8 0.4 0.4 1 0.8 1.4 1.4 2.4 2.2 5 4.6 7.6 6.8 0.4 0.4 1 0.8 1.4 1.2 2 1.8 4.202 3.6 6.4 5.2 0.8 0.6 1.4 1.2 2.2 1.8 2.4 1.8 4.602 3.6 7 5.4 0.4 0.2 0.602 0.4 1 0.8 2.8 2 5.4 4 8.202 6 0.6 0.4 1.2 0.8 1.798 1.2 2.4 1.6 4.602 3.2 7 4.8 0.602 0.4 1.202 0.8 1.8 1.2 5.8 3.8 11.8 7.4 17.8 10.8 0.398 0.2 1 0.6 1.6 0.8 2.798 1.6 5.6 3.2 8.6 4.6 0.2 0.2 0.6 0.2 0.8 0.4 6.398 3.4 13 6.4 19.6 9.4 0.4 0.2 0.798 0.4 1.2 0.6 6.6 2.8 13.4 5.6 20.202 8 0.2 0 0.398 0.2 0.798 0.2 3.202 1.2 6.4 2.2 9.6 3.2 0.4 0.2 0.8 0.2 1.202 0.4 6.798 2.2 13.798 4.2 21 6 0.6 0.2 1.2 0.2 1.798 0.4 3 0.8 6.202 1.4 9.202 2.2 0.4 0.2 1 0.2 1.4 0.4 3.6 0.8 7.2 1.4 10.6 2 0.4 0 0.798 0.2 1.2 0.2 3 0.6 6.202 1 9.4 1.4 1 0.2 1.8 0.2 2.8 0.4 3 0.4 6 0.8 9 1.2 0.6 0 1 0.2 1.6 0.2 3.4 0.4 7 0.6 10.6 1 1 0 1.8 0.2 2.8 0.2 2.798 0.2 5.398 0.4 8.2 0.4 1 0 2 0 3.2 0.2 3.602 0.2 7.202 0.2 10.8 0.2 10 0 19.8-0.4 29.6-1.4 60-5.2 115.4-26 162.202-58.2 16.2-11.2 31.398-23.8 45.6-37.6 1.6-1.4 3-3 4.398-4.4 12.602-12.8 24-26.6 34.4-41.2 34.6-48.8 56.8-107 61.6-170.2 0.602-8.4 1-16.8 1-25.4 0-0.2 0-0.4 0-0.6 0-187.2-151.798-339-338.998-339-22.4 0-44.202 2.202-65.202 6.202-2 0.398-3.798 0.798-5.798 1.2-0.202 0-0.4 0.2-0.8 0.2-5.8 1.202-11.4 2.602-17.2 4.202-0.4 0.2-1 0.2-1.4 0.4-1.6 0.398-3.4 1-5 1.398-0.6 0.202-1.202 0.4-2 0.602-5.202 1.6-10.202 3.2-15.202 5-0.798 0.2-1.6 0.6-2.398 0.798-1.4 0.4-2.8 1-4.202 1.6-0.798 0.4-1.798 0.602-2.6 1-1.4 0.602-2.6 1-4 1.602-1 0.398-1.8 0.798-2.8 1.2-2.2 1-4.6 1.8-6.798 2.8-1 0.398-2 0.798-3 1.2-1.202 0.6-2.4 1.2-3.6 1.6-1 0.4-2 1-3 1.4-1.202 0.6-2.4 1.2-3.602 1.8-1 0.6-2 1-3.2 1.6-2 1-3.8 2-5.8 3-1 0.6-2.2 1.2-3.2 1.798-1.2 0.602-2.2 1.202-3.4 1.8-1 0.6-2 1-2.798 1.6-1.202 0.6-2.202 1.4-3.4 2-1 0.6-1.8 1.202-2.8 1.6-2 1.202-4 2.4-5.798 3.602-1 0.598-2 1.2-2.8 1.798-1.2 0.798-2.4 1.4-3.4 2.202-0.798 0.598-1.6 1.2-2.6 1.598-1.2 0.8-2.4 1.602-3.4 2.402-0.798 0.598-1.6 1.2-2.4 1.598-1.2 0.8-2.398 1.602-3.398 2.402-0.202 0-0.202 0.2-0.4 0.2-2.8 2-5.4 4-8 6-0.8 0.6-1.6 1.2-2.202 1.8-1.2 0.798-2.2 1.798-3.398 2.598-0.8 0.602-1.602 1.202-2.202 1.8-1 0.8-2.2 1.8-3.2 2.602-0.8 0.598-1.6 1.2-2.202 2-1.798 1.598-3.6 3-5.398 4.598-0.8 0.8-1.8 1.602-2.602 2.202-1 0.798-1.798 1.6-2.798 2.6-1 0.8-1.8 1.602-2.8 2.602-0.798 0.798-1.6 1.598-2.4 2.398-1.398 1.4-2.798 2.602-4 4-0.398 0.4-0.6 0.602-1 0.8-19.2 19.2-36 40.6-50.2 64-22.6 37.2-38.2 79.2-45.2 124.2-3.008 15.996-4.408 33.198-4.408 50.798z" />
<glyph unicode="&#xe618;" d="M750.732 866.74c16.79 0 30.608-13.816 30.608-30.606v-309.042c0-16.79-0.352-44.422-0.702-61.388 0 0 0-3.322-1.574-19.062-1.398-15.742-3.672-30.958-6.646-45.122-2.1-10.32-4.546-20.114-7.346-29.734-4.546-15.566-10.142-29.906-16.616-43.376-4.546-9.446-9.62-18.364-15.042-26.758-7.52-11.546-15.74-22.21-25.010-31.832-8.046-8.57-16.792-16.442-26.232-23.434-7.872-5.946-16.092-11.372-24.836-16.266-10.494-5.774-21.512-11.020-33.054-15.218-13.642-5.066-28.158-9.27-43.376-12.242-23.26-4.722-48.444-6.996-75.206-6.996-18.71 0-36.378 1.226-53.344 3.5-15.39 2.098-30.080 5.246-43.898 9.446-15.042 4.546-29.382 10.316-42.5 17.488-13.294 7.172-25.71 15.566-36.906 25.184-9.092 7.872-17.49 16.442-25.36 26.058-7.694 9.622-14.866 19.938-21.162 31.304-7.696 13.644-14.166 28.512-19.762 44.598-4.022 11.894-7.52 24.664-10.494 38.128-3.674 17.312-6.47 36.030-8.22 55.968-1.4 16.264-2.1 33.23-2.1 51.068v337.726c0 16.79 13.818 30.606 30.606 30.606h87.626c16.79 0 30.606-13.816 30.606-30.606v-317.786c0-16.79 0.346-42.674 0.698-57.366 0 0 0 0 1.224-12.068 1.398-13.464 3.498-26.058 6.47-37.426 3.148-12.418 7.17-23.79 12.066-33.754 4.198-8.746 9.094-16.618 14.52-23.614 9.442-11.894 20.636-21.164 33.404-27.632 14.866-7.524 32.006-11.192 51.244-11.192 13.466 0 25.884 1.57 37.252 4.894 13.468 3.848 25.36 10.144 35.68 18.714 9.27 7.696 17.312 17.312 23.958 29.032 5.424 9.274 9.794 19.942 13.466 31.66 4.024 12.94 6.82 27.284 8.746 43.376 1.572 13.814 2.448 28.682 2.448 44.772v348.39c0 16.79 13.814 30.606 30.606 30.606h88.158M750.732 919.208h-87.624c-45.822 0-83.076-37.252-83.076-83.076v-348.566c0-13.992-0.698-27.11-2.096-38.828-1.402-12.766-3.676-24.132-6.82-34.104-2.45-8.044-5.422-15.042-8.746-20.986-3.498-6.122-7.52-11.020-12.068-14.692-4.718-3.848-10.142-6.648-16.616-8.57-6.468-1.926-14.166-2.8-22.736-2.8-10.84 0-20.288 1.93-27.806 5.598-5.948 2.972-11.194 7.348-15.74 13.118-3.148 3.848-5.948 8.57-8.394 13.816-3.324 6.82-6.122 14.868-8.398 23.962-2.274 9.092-4.022 19.238-5.070 30.080l-1.052 9.968c-0.346 14.692-0.524 38.302-0.524 54.042v317.962c0 45.824-37.252 83.076-83.076 83.076h-87.622c-45.824 0-83.252-37.252-83.252-83.076v-337.724c0-19.238 0.7-37.952 2.276-55.616 1.924-21.864 4.898-42.852 9.27-62.438 3.32-15.214 7.346-30.082 12.064-43.898 6.472-19.062 14.52-37.078 23.612-53.344 7.696-13.816 16.616-26.758 26.234-38.652 9.62-11.89 20.462-22.914 31.832-32.878 14.17-12.070 29.732-22.738 46.526-31.66 16.086-8.566 33.576-15.738 52.118-21.336 16.264-4.898 33.754-8.746 51.768-11.192 19.064-2.624 39.53-4.024 60.516-4.024 30.256 0 59.116 2.8 85.522 8.046 18.014 3.672 35.154 8.57 51.42 14.692 13.99 5.246 27.632 11.542 40.224 18.71 10.668 5.946 20.988 12.77 30.782 20.114 11.718 8.742 22.736 18.714 32.708 29.208 11.368 11.894 21.684 25.188 30.78 39.352 6.646 10.144 12.768 21.164 18.192 32.536 7.692 15.914 14.342 33.226 19.588 51.242 3.32 11.020 6.122 22.386 8.566 34.106 3.324 16.090 5.772 33.23 7.346 50.718 1.048 11.718 1.75 19.414 1.75 22.736 0.35 17.314 0.7 45.298 0.7 62.438v308.864c0.172 45.824-37.258 83.076-83.078 83.076v0zM120.234 24.792c-14.516 0-26.234 11.718-26.234 26.234v0c0 14.52 11.718 26.234 26.234 26.234v0h783.532c14.516 0 26.234-11.714 26.234-26.234v0c0-14.516-11.718-26.234-26.234-26.234v0h-783.532z" />
<glyph unicode="&#xe619;" d="M512 782c21.6 0 43-1.4 64-4 21.8-2.8 43.2-6.8 64-12.2 22-5.6 43.4-12.8 64-21 19.2-7.8 38-16.8 56-26.8 2.6-1.4 5.4-3 8-4.4 22.4-13 43.8-27.6 64-43.8 6.4-5 12.6-10.4 18.6-15.6 16-14.2 31.2-29.4 45.4-45.4 22.4-25.4 42.4-53.2 59.4-82.6 1.6-2.6 3-5.2 4.6-8 10-18 19-36.8 26.8-56 8.4-20.8 15.4-42 21-64 5.4-20.8 9.4-42.2 12.2-64 2.6-21 2.8-24 2.8-24 0.6-22 1.2-40 1.2-40 0 0-3.2 32-7.2 43.4s-27 52.8-37.6 63-21.8 20.4-22.8 21c-1 0.8-28.4 16.4-39.8 20.4s-33.2 9.4-48.6 12.2c0 0 0 0-14.8 0-7.2 0-14.4-0.4-21.4-1.2-23-2.8-44.8-9.8-64-20.2-6.4-3.4-12.4-7.2-18.4-11.4-18.6-13.4-34.2-30.2-45.6-49.6-2.6-4.4-5-8.8-7.2-13.6-9.2-19.6-14.2-41.2-14.2-64 0 22.8-5 44.4-14.2 64-7.2 15.4-16.8 29.4-28.4 41.8-7.8 8.2-16.2 15.6-25.6 22.2-11.8 8.2-24.6 15.2-38.4 20.4-19.8 7.6-41.4 11.6-64 11.6-22.6 0-44.2-4.2-64-11.6-13.8-5.2-26.6-12.2-38.4-20.4-9.4-6.6-17.8-14-25.6-22.2-11.6-12.4-21.4-26.4-28.4-41.8-9.2-19.6-14.2-41.2-14.2-64 0 22.8-5 44.4-14.2 64-2.2 4.6-4.6 9.2-7.2 13.4-11.8 19.8-27.8 37-47 50.6-5.4 3.8-11.2 7.4-17 10.6-19.2 10.4-41 17.4-64 20.2-7 0.8-14.2 1.2-21.4 1.2-14.8 0-29-1.8-42.6-5-22-5.2-42.2-14.6-59.8-27-1.4-1-2.8-2-4.2-3-21.2-16.4-38.4-37.2-49.6-61.2-9.2-19.6-14.2-41.2-14.2-64 0 21.6 1.4 43 4 64 2.8 21.8 6.8 43.2 12.2 64 5.6 22 12.8 43.4 21 64 7.8 19.2 16.8 38 26.8 56 1.4 2.6 3 5.4 4.4 8 13 22.4 27.6 43.8 43.8 64 5 6.4 10.4 12.6 15.8 18.6 13.2 15 27.2 29 42 42.4 7.2 6.4 14.4 12.6 22 18.6 20.2 16.2 41.6 30.8 64 43.8 20.4 11.8 41.8 22.4 64 31.2 21 8.6 42.8 15.6 65 21.4 20.6 5.2 41.6 9.2 63 11.8 21 2.8 42.4 4.2 64 4.2M512 722c-19 0-38-1.2-56.6-3.6s-37.4-5.8-55.6-10.4c-19.4-5-38.8-11.4-57.4-18.8-19.4-7.8-38.4-17.2-56.4-27.6-19.6-11.4-38.8-24.4-56.6-38.6-6.6-5.2-13.2-10.8-19.4-16.6-13-11.6-25.6-24.2-37-37.4-4.8-5.4-9.4-11-13.8-16.4-14.2-17.8-27.2-36.8-38.6-56.6-1.4-2.4-2.6-4.6-4-7-1-2-2.2-3.8-3.2-5.8 0.2 0 0.4 0.2 0.6 0.2 18.4 4.4 37.6 6.8 56.8 6.8 9.4 0 19-0.6 28.4-1.6 30.2-3.6 59.2-12.6 85.6-27 8-4.2 15.6-9.2 23-14.2 12.2-8.6 23.4-18.4 33.6-29 10.2 10.6 21.6 20.4 33.8 29 16 11.2 33.4 20.4 51.6 27.4 27.2 10.4 55.8 15.6 85.2 15.6 29.4 0 58.2-5.2 85.2-15.6 18.4-7 35.8-16.2 51.6-27.4 12.2-8.6 23.6-18.4 33.6-29 9.6 10.2 20.4 19.4 32 27.8 7.8 5.6 16.2 10.8 24.6 15.4 26.6 14.4 55.4 23.4 85.6 27 9.4 1 18.8 1.6 28.4 1.6h14.6c3.6 0 7.2-0.4 10.6-1 10-1.8 21.8-4.4 32.6-7.2-1.2 2.4-2.6 4.8-3.8 7.2-1.4 2.4-2.6 4.8-4 7-15 26-32.6 50.4-52.6 73-12.4 14.2-26 27.6-40 40-5.4 4.8-10.8 9.4-16.4 13.8-17.8 14.2-36.8 27.2-56.6 38.6-2.4 1.4-4.6 2.6-7 4-16 8.8-32.6 16.8-49.4 23.6-18.4 7.4-37.4 13.6-56.4 18.6-18.4 4.8-37.4 8.4-56.4 10.8-18.2 2.2-37.2 3.4-56.2 3.4v0zM482 866v64c0 16.6 13.4 30 30 30v0c16.6 0 30-13.4 30-30v0-64c0-16.6-13.4-30-30-30v0c-16.6 0-30 13.4-30 30v0zM353.6-60.6c-17 3.4-39.6 10-61.8 24.2v0c-14.8 9.4-29.2 22.4-40.8 39.8v0c-15.6 23.2-25.2 53.6-25 90.6v0c0 16.6 13.4 30 30 30v0c16.6 0 30-13.4 30-30v0c0-26.2 6.2-43.4 14.2-56.2v0c8.2-12.6 19-21.4 31-27.8v0c22.8-12.4 49.6-14 52.8-14v0 0c0 0 0 0 0 0v0c0.2 0 0.4 0 0.8 0v0c0.8 0 2 0 3.8 0.2v0c3.4 0.2 8.4 0.8 14.4 2v0c12 2.4 27.4 7.2 40.8 15.8v0c9 5.8 16.8 13 23.4 22.6v0c8.4 12.8 14.8 30.2 15 57.4v0 226c0 16.6 13.4 30 30 30v0c16.6 0 30-13.4 30-30v0-226c0-37-9.6-67.6-25-90.6v0c-15.4-23.2-36-38.4-55.6-48.2v0c-39.2-19.4-75-19-77.4-19.2v0c-1.6 0-13.6 0-30.6 3.4v0zM384-4v0 0 0z" />
<glyph unicode="&#xe61a;" d="M686 732.8c38.8 0 77.4-13.8 107.2-43.8 38.4 4.2 63 22.2 94.602 33-13.4-32-32.202-58.4-57.602-78.2 31.4 1.6 52.202 13.8 78.202 20.6-20.6-30.2-47.4-54.4-74-78.2 12-258-192.4-444-426.6-444-75 0-153.202 19-228.202 61 89.4 2.602 161.602 22.4 214.202 61.602-65.4 17.2-118.4 46.398-136 111.2 6.2-3.4 16.4-4.8 27.2-4.8 13.202 0 27 2 34.8 4.8-64.6 23.2-109 66.8-115.202 148.2 21.202-4.8 37.8-14.4 61.602-16.4-38.802 22.998-84.202 129.598-41.202 197.598 76.8-75.4 159.8-144.8 304.8-152.4-17.598 110.2 69.2 179.8 156.2 179.8M975.2 803l-103-35c-13.2-4.4-25-10-35.398-14.6-10.8-4.8-20-9.2-29.602-12-34.2 26-76.2 40-121.2 40v0c-61.8 0-122-27.4-161-72.8-24.6-28.8-39.798-63.6-44.798-101.2-97 18-158.4 71-221 132.4l-43.202 42.4-32.4-50.8c-25-39.4-31.6-91-18.6-145 0.202-1.2 0.6-2.4 0.8-3.6l-15.6 3.4 5.2-66c3.8-48.2 19-89 45.4-121.4l9.798-35.8c11-40.2 33.4-73.4 66.4-98.8-29.2-7.2-62.2-11.6-99-12.6l-177.2-5 154.802-86.4c40.202-22.398 82.602-39.6 125.602-50.798 41.398-11 84.2-16.4 126.398-16.4 66.202 0 130.4 13.2 191 39 59.6 25.4 112.6 62.2 157 108.6 83.202 87 128 201.202 128 324 23.6 21.6 46.202 44.2 65 71.8l74.6 107.8-81.8-21.202 33.8 80z" />
<glyph unicode="&#xe61b;" d="M729.2 669.2c33.6 3.6 55.2 19.4 83 28.8-11.8-27.8-28.2-51.2-50.4-68.6 27.4 1.4 45.6 12 68.4 18-18.2-26.4-41.4-47.6-64.8-68.6 13.8-298-302.396-486.6-573.2-335.4 78.204 2.2 141.4 19.6 187.4 54-57.2 15-103.6 40.6-119 97.4 12.2-6.8 41.4-4.4 54 0-56.6 20.4-95.4 58.4-101 129.8 18.6-4.2 33.2-12.6 54-14.4-34 20.2-73.6 113.4-36 173 67.4-66 140-126.8 266.8-133.4-22 140.2 146.6 205 230.8 119.4zM512 960c282.8 0 512-229.2 512-512s-229.204-512-512-512c-282.8 0-512 229.2-512 512 0 282.8 229.2 512 512 512M512 900c-61 0-120.204-12-176-35.4-53.8-22.8-102.2-55.4-143.6-96.8-41.6-41.6-74.2-89.8-96.8-143.6-23.6-55.6-35.4-114.8-35.4-176 0-61 12-120.2 35.4-176 22.8-53.8 55.4-102.2 96.8-143.6 41.6-41.6 89.8-74.2 143.6-96.8 55.6-23.604 114.796-35.4 176-35.4 61 0 120.2 12 176 35.4 53.8 22.8 102.2 55.4 143.6 96.8 41.6 41.6 74.2 89.8 96.796 143.6 23.6 55.602 35.4 114.8 35.4 176 0 61-12 120.202-35.4 176-22.796 53.8-55.4 102.2-96.796 143.6-41.6 41.6-89.8 74.2-143.6 96.8-55.8 23.4-115 35.4-176 35.4v0z" />
<glyph unicode="&#xe61c;" d="M1000.2 750.2l-55.2-14.4 22.2 52.8 14.6 34.8-60.4-20.4c-14.2-4.8-27-10.6-38.6-16-12.8-5.8-24.8-11.2-37.6-15.2l-13.8-4.2-11.6 9c-35 26.8-77.8 41-123.8 41-63.8 0-125.8-28-165.8-74.8-24.798-29-40.4-64.4-45.4-102.8l-3.798-29.6-29.4 5.4c-121.8 22.6-198.2 89.4-272 161.6l-25.602 24.6-18.8-30.2c-25-39.2-31-91.6-17.798-147 0.2-1.4 0.798-2.6 1-3.8l11.2-44.4-25.602 5.6 3-38.6c4-50.2 19.6-92.4 46.6-125.6l3.8-4.8 1.6-5.598 11.2-41.602c11-40.8 33.6-74.4 67-99.798l46.8-35.602-57.202-14.398c-35.798-9-76.398-14.202-121.198-15.602l-103.6-2.8 90.798-50.6c44.8-25 91.602-44 139.602-56.4 45.798-12 93.2-18.202 140-18.202 73.2 0 144.2 14.602 211 43 65.798 28.202 124.2 68.4 173.2 119.8 45.4 47.6 80.798 102.798 105 163.798 24 61 36.2 126.202 36.2 193.602v12.4l9.202 8.4c23 21.2 49.6 47 71.6 78.8l43.4 63.4-21.802-5.598z" />
<glyph unicode="&#xe61d;" d="M545.898 898.2v-227.6h213.602v-141.4h-213.602v-230.802c0-52.2 2.8-85.796 8.204-100.598 5.598-14.8 15.796-26.602 30.796-35.602 20-12 42.602-18 68.402-18 45.598 0 90.8 14.8 136 44.402v-142c-38.402-18.204-73.402-30.8-104.402-38.204-31.2-7.2-65-11-101.2-11-41.2 0-77.598 5.204-109.2 15.602-31.6 10.398-58.6 25.2-81 44.398-22.398 19.204-37.798 39.602-46.398 61.402-8.602 21.598-13 53-13 94.2v316.402h-99.4v127.4c35.4 11.4 65.6 28 90.798 49.4 25.202 21.4 45.4 47.2 60.8 77.2 15.2 30 25.8 68.4 31.6 114.8h128M605.898 958.2h-241.2l-6.6-52.6c-4.602-39.4-13.202-71.4-25.4-95-11.6-23.2-26.8-42.4-46-58.8-19-16.2-42.8-29-70.6-38l-41.4-13.6v-231h99.6v-255.802c0-49.2 5.6-87.398 17.2-116.398 12.202-30.602 33.4-59.2 63-84.602 28.202-24.398 62.4-43.2 101.4-56 37.6-12.398 80.6-18.598 127.8-18.598 40.8 0 79.402 4.2 114.8 12.598 35.2 8.204 74.398 22.402 116.398 42.402l34.402 16.2v291.2l-93-61c-35.402-23.2-69.2-34.598-103-34.598-14.8 0-27 3-37.402 9.398l-0.4 0.4c-3.602 2.204-4.602 3.602-5 4.402-0.8 2.598-4.602 19.598-4.602 79.8v170.798h213.602v261.4h-213.602v227.4h0.004z" />
<glyph unicode="&#xe61e;" d="M534.4 746.4v-150.8h141.6v-93.6h-141.6v-153c0-34.6 1.796-56.8 5.396-66.6 3.604-9.8 10.4-17.6 20.4-23.6 13.204-8 28.204-11.8 45.204-11.8 30.2 0 60.2 9.8 90.2 29.4v-94.2c-25.6-12-48.6-20.396-69.204-25.2-20.6-4.8-42.996-7.2-66.996-7.2-27.204 0-51.4 3.396-72.4 10.396-21 6.8-38.8 16.8-53.6 29.4-14.8 12.8-25 26.4-30.8 40.602-5.8 14.398-8.6 35.202-8.6 62.398v209.204h-66v84.4c23.4 7.6 43.6 18.6 60.2 32.8 16.8 14.2 30.204 31.2 40.204 51.2 10.2 20 17 45.2 20.796 76l85.2 0.2M594.4 806.4h-197.8l-6.6-52.6c-3-23.8-8-42.6-14.8-56.4-6.6-13-15-23.6-25.6-32.6s-24-16.2-40-21.4l-41.4-13.4v-188h66v-149.4c0-35.2 4.204-63 12.8-84.6 9.2-23.4 25.2-44.8 47.4-64 20.796-17.8 45.6-31.6 74-41 27-8.8 57.6-13.4 91-13.4 28.6 0 55.6 3 80.796 8.8 24.798 5.796 52 15.6 81.2 29.4l34.4 16.2v243.4l-93-61c-20-13.202-38.796-19.6-57.2-19.6-4.2 0-7.4 0.6-9.8 1.2-0.6 6.8-1.396 19.2-1.396 40.8v93h141.6v213.6h-141.6v151zM512 960c282.8 0 512-229.2 512-512s-229.204-512-512-512c-282.8 0-512 229.2-512 512 0 282.8 229.2 512 512 512M512 900c-61 0-120.204-12-176-35.4-53.8-22.8-102.2-55.4-143.6-96.8-41.6-41.6-74.2-89.8-96.8-143.6-23.6-55.6-35.4-114.8-35.4-176 0-61 12-120.2 35.4-176 22.8-53.8 55.4-102.2 96.8-143.6 41.6-41.6 89.8-74.2 143.6-96.8 55.6-23.604 114.796-35.4 176-35.4 61 0 120.2 12 176 35.4 53.8 22.8 102.2 55.4 143.6 96.8 41.6 41.6 74.2 89.8 96.796 143.6 23.6 55.602 35.4 114.8 35.4 176 0 61-12 120.202-35.4 176-22.796 53.8-55.4 102.2-96.796 143.6-41.6 41.6-89.8 74.2-143.6 96.8-55.8 23.4-115 35.4-176 35.4v0z" />
<glyph unicode="&#xe61f;" d="M653.302 154.298c-23.602 0-44.8 5.602-63 16.4h-0.2l-0.204 0.202h-0.2c-11.8 7-20.398 16.398-25.2 27.6l-1.398 3.2-1 3.202c-4.204 15.398-6.402 46.798-6.402 93.2v220.8h213.602v161.4h-213.6v227.8h-146.8l-1-8.8c-5.6-45-15.798-82.6-30.6-111.4-14.8-29.2-33.8-53.4-58.2-74.2-24-20.4-53.602-36.4-87.602-47.6l-6.798-2.2v-144.6h99.6v-305.8c0-42.202 4.6-75.202 13.6-98 9.202-23 25.8-45 49.202-65.202 23.2-20 51.6-35.6 84.398-46.398 32.4-10.602 70.2-16 112.2-16 36.8 0 71.602 3.798 103.402 11.2 31.796 7.4 67.598 20.6 106.398 38.8l5.8 2.798v167l-15.402-10.2c-43.796-29.202-86.596-43.202-130.596-43.202z" />
<glyph unicode="&#xe620;" d="M1008 456.9c5.398 0 10.798 0 16.398 0 0-6 0-11.8 0-17.8-1.798 9.6-7.598 15.2-16.398 17.8zM995.8 508.2l-135.4 135.4c-15.6 15.6-46.4 28.4-68.4 28.4h-176c-2.8 0-5.4-0.2-8-0.8v120.8c0 22-18 40-40 40h-528c-22 0-40-18-40-40v-560c0-22 18-40 40-40h33v0.2h55c0 0 0 0 0-0.2 0-70.6 57.4-128 128-128s128 57.4 128 128c0 0 0 0 0 0.2h74v-0.2h110c11.798 0 22.6 5.2 29.798 13.6 13-7.6 28.6-12.6 38.202-13.4h33c0 0 0 0 0-0.2 0-70.6 57.398-128 128-128 70.6 0 128 57.4 128 128 0 0 0 0 0 0.2h40v-0.2h19c0.798 0 1.6 0 2.398 0.2h4.602v0.6c18.6 3.4 33 19.8 33 39.4v207.8c0 22-12.8 52.8-28.2 68.2zM256 124c-37.4 0-68 30.6-68 68s30.6 68 68 68 68-30.6 68-68-30.6-68-68-68zM548 252h-179c-21.6 40.4-64 68-113 68s-91.6-27.6-113-68h-83v520h488v-520zM964 440v-12h-183c-2.8 0-5 1-7 3s-3 4.4-3 7v71.6c0 2.8 1 5.2 3 7 2 2 4.398 3 7 3l118 0.2 54.2-54.2c4.4-4.2 10.6-19.2 10.8-25.6zM797 124c-37.4 0-68 30.6-68 68s30.6 68 68 68c37.398 0 68-30.6 68-68s-30.602-68-68-68zM910 252c-21.602 40.4-64 68-113 68s-91.602-27.6-113-68h-48v360h156c6.398-0.2 21.398-6.4 25.798-10.8l21.202-21.2-58.202-0.2c-38.6-0.2-69.798-31.4-70-70v-71.6c0.202-38.6 31.4-69.798 70-70h184v-116.2h-54.798z" />
<glyph unicode="&#xe621;" d="M924 960c55 0 100-45 100-100v-824c0-55-45-100-100-100h-824c-55 0-100 45-100 100v824c0 55 45 100 100 100h824M924 900h-824c-21.6 0-40-18.4-40-40v-824c0-21.6 18.4-40 40-40h824c21.6 0 40 18.4 40 40v824c0 21.6-18.4 40-40 40v0zM431 802c22 0 40-18 40-40v-628c0-22-18-40-40-40h-230c-22 0-40 18-40 40v628c0 22 18 40 40 40h230M411 742h-190v-588h190v588zM823 802c22 0 40-18 40-40v-334c0-22-18-40-40-40h-232c-22 0-40 18-40 40v334c0 22 18 40 40 40h232M803 742h-192v-294h192v294z" />
<glyph unicode="&#xe622;" d="M894.396 840.6h-224.998v89.6c0 7.8-3.202 15.6-8.8 21.2-5.6 5.6-13.2 8.8-21.2 8.8h-254.6c-7.798 0-15.6-3.2-21.2-8.8-5.6-5.6-8.8-13.2-8.8-21.2v-89.6h-225c-16.398 0-29.798-13.4-29.798-30 0-16.4 13.4-29.8 29.798-29.8h39.8l97.6-779.4c2.4-19 12-35 25-46.6 13-11.4 30.202-19 49.4-19h340.8c19.2 0 36.2 7.6 49.398 19 13 11.6 22.6 27.6 25 46.6l97.6 779.4h39.8c16.4 0 29.8 13.4 29.8 29.8 0.202 16.6-13.198 30-29.6 30zM414.6 900.2h195.198v-59.8h-195.198v59.8zM697.598 8.8c-0.2-2.8-2.2-6.4-5.4-9.202-3.2-2.798-7-4.2-9.798-4.2h-340.8c-2.8 0-6.6 1.4-9.8 4.2-3.2 2.8-5 6.4-5.398 9.202l-96.402 772h564.398l-96.8-772zM565.598 66v652c0 16.4 13.4 29.8 29.8 29.8v0c16.398 0 29.798-13.4 29.798-29.8v0-652c0-16.4-13.4-29.8-29.798-29.8v0c-16.4 0-29.8 13.4-29.8 29.8v0zM398.798 66v652c0 16.4 13.4 29.8 29.8 29.8v0c16.4 0 29.8-13.4 29.8-29.8v0-652c0-16.4-13.4-29.8-29.8-29.8v0c-16.4 0-29.8 13.4-29.8 29.8v0z" />
<glyph unicode="&#xe623;" d="M674.802 725.8c-79.202 134.4-158.202 229.4-158.402 229.6l-4.4 5-4.6-5c-0.2-0.2-79.2-95-158.4-229.6-79-134.6-158.6-308.8-158.6-468.6 0-177.6 144-321.6 321.6-321.6s321.6 144 321.6 321.602c-0.2 159.798-79.6 333.998-158.798 468.598zM697.4 71.6c-49.6-49.6-115.4-76.798-185.6-76.798-70.202 0-136 27.2-185.602 76.798-49.6 49.602-76.798 115.4-76.798 185.602 0 65.2 15.4 140.2 45.798 222.4 25 67.4 60 139.8 104 214.8 41.4 70.4 83.202 130.2 112.602 170.2 29.6-39.8 71.2-99.6 112.6-170 44-75 79-147.4 104-214.8 30.402-82.202 45.8-157.202 45.8-222.402 0-70.4-27.2-136.198-76.8-185.8zM448.802 378.4c-67 0-121.4-54.4-121.4-121.4s54.4-121.4 121.4-121.4 121.398 54.4 121.398 121.4c0 67.202-54.398 121.4-121.398 121.4zM492.802 213.202c-11.202-11.202-26.8-18.202-44-18.202-17.202 0-32.602 7-44 18.202-11.202 11.2-18.202 26.798-18.202 44 0 17.2 7 32.6 18.202 44 11.2 11.2 26.798 18.2 44 18.2 17.2 0 32.6-7 44-18.2 11.2-11.202 18.2-26.8 18.2-44-0.002-17.202-7.002-32.602-18.2-44z" />
<glyph unicode="&#xe624;" d="M674.802 725.4c-79.202 134.4-158.202 229.4-158.402 229.6l-4.4 5-4.6-5c-0.2-0.2-79.2-95-158.4-229.6-79-134.6-158.6-308.8-158.6-468.6 0-177.6 144-321.6 321.6-321.6s321.6 144 321.6 321.602c-0.2 159.798-79.6 333.998-158.798 468.598z" />
<glyph unicode="&#xe625;" d="M512 960c-282.8 0-512-229.2-512-512s229.2-512 512-512c282.798 0 512 229.2 512 512 0 282.8-229.2 512-512 512zM831.6 128.4c-41.6-41.6-89.8-74.2-143.6-96.8-55.8-23.6-115-35.6-176-35.6s-120.202 12-176 35.4c-53.8 22.8-102.2 55.4-143.6 96.8-41.6 41.8-74.2 90-97 143.8-23.4 55.8-35.4 115-35.4 176s12 120.2 35.4 176c22.8 53.8 55.4 102.2 96.8 143.6 41.8 41.6 90 74.2 143.8 97 55.8 23.4 115 35.4 176 35.4s120.2-12 176-35.4c53.798-22.8 102.2-55.4 143.6-96.8 41.6-41.6 74.2-89.8 96.798-143.6 23.6-55.6 35.4-114.8 35.4-176 0-61-12-120.2-35.4-176-22.598-54-55.198-102.2-96.798-143.8zM542 504.6v327.4c0 16.6-13.4 30-30 30s-30-13.4-30-30v-327.4c-20.202-10.8-34-32-34-56.6 0-6.6 1-12.8 2.798-18.8l-119-119c-11.798-11.8-11.798-30.8 0.002-42.4 5.8-5.8 13.602-8.8 21.202-8.8s15.4 3 21.2 8.8l119 119c6-1.8 12.202-2.8 18.8-2.8 35.4 0 64 28.6 64 64-0.002 24.6-13.802 45.8-34.002 56.6z" />
<glyph unicode="&#xe626;" d="M248.802 536.8l35 14.6c26.2 11 51.2 27.4 73.2 49.4v0c22.4 22.4 39.202 48 50.202 74.8v0l14.6 35.4 353.4-353.4-35.4-14.6c-26.8-11-52.4-27.6-74.8-50.2v0c-22-22-38.4-47-49.4-73.202v0l-14.6-35-352.202 352.202zM582.202 277c11.798 19.8 26.2 38.6 43.398 55.8v0c17.602 17.6 37 32.398 57.4 44.2v0l-242 241.8c-11.798-20.4-26.6-39.8-44.2-57.4v0c-17.2-17.2-36-31.6-55.8-43.4v0l241.202-241zM414 645.8v0zM947 287.2l-42.6-42.6c-56.8 56.8-145.8 60.202-198.4 7.6-52.798-52.798-49.4-141.6 7.6-198.398l-42.6-42.602-596 595.8 42.602 42.6c56.798-56.8 145.798-60.2 198.398-7.6 52.8 52.8 49.4 141.6-7.6 198.4l42.6 42.6 596-595.8M1024 284.4l-40 39.8-635.798 635.8-116.6-116.6 40-40c34.798-34.8 36.798-89.4 4.6-121.6-32.202-32.2-86.8-30.2-121.6 4.6l-40 39.8-116.4-116.4 675.798-675.8 116.6 116.6-40 40c-34.798 34.8-36.798 89.4-4.6 121.6 32.202 32.202 86.8 30.202 121.6-4.6l40-40 79.6 79.6 36.8 37.2z" />
<glyph unicode="&#xe627;" d="M886 302.6c6.2 6.4 13.8 15.4 19.602 27.602 5.2 10.798 8.598 24 8.598 38.6 0 20.8-8 38.2-17.2 50.8-9.402 12.598-20 21.398-27.8 27.398-0.2 0.2-0.398 0.2-0.398 0.4 0.2 0.8 0.398 1.6 0.398 2.4 1.8 9 3.602 21 3.602 34 0 10.4-2.602 20.4-7 30.6-4.602 10.2-11.204 20.4-20.602 29.8-18.8 18.8-48.598 32.4-86.398 32.2-30.402 0-68.402-5-104.602-10.2-36-5.4-69.8-11.2-87.398-13.4-4.8-0.6-8.602-0.8-8.8-0.8-2-0.2-7.2 1.6-11 5.2-3.8 3.6-5.602 7.8-5.602 11.8 0 18.8 6.204 37.8 16.204 59.6 9.796 21.8 23 45.6 32.398 73.6 6.398 18.8 10.8 39.6 10.8 62.4 0 23.4-6.402 45.4-17 64-10.602 18.6-25.402 34.4-44 44.8-12.402 6.6-26.602 11-41.8 11h-0.202c-9.2 0-18.4-1.8-26.4-5.2-8.2-3.4-15-8.6-20.398-14.2-10.8-11.4-15.602-24.2-18.202-35.2-1.6-7.4-2.4-14.2-2.4-20.4 0-34.2-13.398-65-35.2-94.8s-51.6-57.2-80.2-82.6c-19.202-16.8-37.8-32.6-53.602-48.4-20.398-20.4-32-43.2-41.398-63-9.4-20-17.202-37.2-26.4-49.4-6.202-8.2-13-14.4-22.4-19.6-12.4-6.8-31.2-12-61.4-12v-60c31.4 0 57.202 4.598 78.8 13.798s38.2 23 50.2 38.202c8 10 14.4 20.598 19.8 30.798 7.2 13.6 12.798 26.8 18.798 38.8 7.8 16 15.8 29.4 26.8 40.4 19.8 19.8 50.4 44.4 81.2 73.2 30.602 29 61.8 62.4 82.8 103.4 13.8 27.2 23 58 23 91.8 0 2.6 0.6 7.4 1.8 10.4 1.2 3.2 2.398 4 2.398 4 0.202 0 0.4 0.4 3.202 0.4 3.6 0 7.6-1 12.4-3.6 4.8-2.6 9.8-6.8 14.398-12.6 9.204-11.2 15.602-27.6 15.602-43.8 0-22.2-6.602-42.8-16.2-65-9.602-22.2-22.6-45.2-32.2-71.8-6.4-17.8-11-37.4-11-58.8 0-22.6 10.2-42 24-55.2 14-13.2 32-21.8 52.4-21.8 5.398 0 10.2 0.6 16.2 1.2 6 0.8 12.8 1.8 20.402 2.8 15.398 2.4 33.796 5.4 53.598 8.4 39.2 6 83.398 12 110.8 11.8 17 0 28.2-4 35.8-8.6 7.796-4.6 12.598-10.4 15.398-15.8 1.8-3.4 2.602-6.6 2.8-7.8 0-0.4 0-0.4 0-0.4 0.2-14-4.402-32.2-4.8-33.2l-1.2-4v-4.202c0 0 0 0 0-6.6 0-7.2 2.2-12.2 4-15.4s3.398-5.202 4.8-6.798c2.796-3 4.796-4.602 6.796-6.202 3.8-3 7.402-5.6 11-8.4 7.204-5.6 14.204-12.2 17.602-18.398 2.398-4 3.398-7.402 3.398-11.8-0.2-7.6-1.796-11.6-4.598-16.202-2.8-4.6-7.2-9-12.602-14.2-3.598-3.8-8-7.4-13-15.2-2.8-4.4-5.8-11.4-6-20.4 0-7.6 2.2-12.8 4-16.4s3.602-6.2 5.402-8.4c3.398-4.202 6.2-7.4 9.2-10.4 5.598-6 10.398-12 12.8-16.8 1.598-3.2 2.2-5.798 2.2-8.398 0-1.4-0.2-2.4-1-4.2-0.8-1.8-2.402-4.402-5-7.202-5-5.798-13.602-12.4-22.2-19.6-5.8-5-12-9.8-18.204-18.8-3.398-5.2-7.398-12.8-7.398-23.2 0-6.602 1.8-13 3.602-17 1.796-4.2 3.2-6.4 4-7.8 1.598-3 2.2-3.6 3.398-9.2 0.8-3.602 1.398-9 1.398-17 0-3.602-0.398-6-1.2-7.8-0.598-1.8-1.598-3.398-3.598-5.6-3.8-4.4-14.402-11.4-36.204-17.4-14.398-4-33.598-7.6-57.996-10.398-32.592-3.598-74.392-5.598-127.194-5.598-98.598 0-166.798 10.4-220.398 23.2-53.602 12.8-92.8 28.402-134.8 39.8-27.8 7.602-57 12.8-90 12.8-8.4 0-17.2-0.4-26.2-1v-60.2c9.2 0.798 18 1.2 26.2 1.2 26.6 0 49.6-4.2 74.4-10.8 24.798-6.6 51.4-16 83.6-25.798 64.6-19.6 150.2-39.202 287.198-39.202 71.402 0 124.602 3.602 165 10.202 40.2 6.798 68.402 16.4 89.402 32.4 13.796 10.398 23.796 24.798 28.2 39.798 2.598 8.4 3.398 16.798 3.398 24.6 0 17.2-2.2 30.2-5.598 40.4-0.8 2.4-1.602 4.6-2.602 6.6 0.602 0.4 1.2 1 1.8 1.4 9 7.6 22.8 17.6 34.2 33.6 7.402 10.602 13.8 25.2 13.8 42s-5.602 31.2-12 41.8c-4.998 7.2-9.798 13.2-13.998 18.2z" />
<glyph unicode="&#xe628;" d="M886 302.7c6.2 6.4 13.8 15.4 19.602 27.602 5.2 10.798 8.598 24 8.598 38.6 0 20.798-8 38.2-17.2 50.798-9.402 12.602-20 21.4-27.8 27.4-0.2 0.2-0.398 0.2-0.398 0.4 0.2 0.8 0.398 1.6 0.398 2.4 1.8 9 3.602 21 3.602 34 0 10.4-2.602 20.4-7 30.6-4.602 10.2-11.204 20.4-20.602 29.8-18.8 18.8-48.598 32.4-86.398 32.2-30.402 0-68.402-5-104.602-10.2-36-5.4-69.8-11.2-87.398-13.4-4.8-0.6-8.602-0.8-8.8-0.8-2-0.2-7.2 1.6-11 5.2-3.8 3.6-5.602 7.8-5.602 11.8 0 18.8 6.204 37.8 16.204 59.6 9.796 21.8 23 45.6 32.398 73.6 6.398 18.8 10.8 39.6 10.8 62.4 0 23.4-6.402 45.4-17 64-10.602 18.6-25.402 34.4-44 44.8-12.402 6.6-26.602 11-41.8 11h-0.202c-9.2 0-18.4-1.8-26.4-5.2-8.2-3.4-15-8.6-20.398-14.2-10.8-11.4-15.602-24.2-18.202-35.2-1.6-7.4-2.4-14.2-2.4-20.4 0-34.2-13.398-65-35.2-94.8s-51.6-57.2-80.2-82.6c-19.202-16.8-37.8-32.6-53.602-48.4-20.398-20.4-32-43.2-41.398-63-9.4-20-17.202-37.2-26.4-49.4-6.202-8.2-13-14.4-22.4-19.6-12.4-6.8-31.2-12-61.4-12v-60l2.8-233.398v-60.202c9.2 0.8 18 1.202 26.2 1.202 26.6 0 49.6-4.202 74.4-10.8s51.4-16 83.6-25.8c64.6-19.6 150.202-39.2 287.2-39.2 71.398 0 124.602 3.6 165 10.2 40.2 6.8 68.398 16.4 89.398 32.4 13.8 10.4 23.8 24.8 28.204 39.8 2.598 8.4 3.398 16.798 3.398 24.6 0 17.2-2.2 30.2-5.602 40.4-0.796 2.4-1.598 4.6-2.598 6.6 0.598 0.4 1.2 1 1.8 1.4 9 7.6 22.796 17.6 34.2 33.6 7.398 10.6 13.8 25.2 13.8 42s-5.602 31.2-12 41.8c-4.6 7.398-9.4 13.398-13.6 18.398z" />
<glyph unicode="&#xe629;" d="M473.1 16.798c-8.2 3.4-15 8.602-20.398 14.202v0c-10.8 11.4-15.602 24.2-18.202 35.2v0c-1.6 7.4-2.4 14.202-2.4 20.4v0c0 34.2-13.398 65-35.2 94.8v0c-21.8 29.798-51.6 57.2-80.2 82.398v0c-19.202 16.8-37.8 32.602-53.602 48.4v0c-20.398 20.4-32 43.202-41.398 63v0c-9.4 20-17.202 37.2-26.4 49.4v0c-6.202 8.202-13 14.4-22.4 19.6v0c-12.4 6.8-31.2 12-61.4 12v0 60c31.4 0 57.202-4.6 78.8-13.8v0c21.6-9.2 38.2-23 50.2-38.2v0c8-10 14.4-20.6 19.8-30.8v0c7.2-13.598 12.798-26.798 18.798-38.798v0c7.8-16 15.8-29.4 26.8-40.4v0c19.8-19.798 50.4-44.4 81.2-73.2v0c30.602-29 61.8-62.4 82.8-103.4v0c13.8-27.2 23-58 23-91.8v0c0-2.6 0.6-7.398 1.8-10.398v0c1.2-3.202 2.398-4 2.398-4v0c0.202 0 0.4-0.4 3.202-0.4v0c3.6 0 7.6 1 12.4 3.6v0c4.798 2.6 9.798 6.8 14.398 12.6v0c9.202 11.202 15.602 27.6 15.602 43.8v0c0 22.2-6.602 42.798-16.202 65v0c-9.6 22.2-22.6 45.2-32.2 71.798v0c-6.4 17.8-11 37.4-11 58.8v0c0 22.6 10.2 42 24 55.202v0c14 13.2 32 21.798 52.4 21.798v0c5.398 0 10.2-0.6 16.2-1.202v0c6-0.798 12.8-1.798 20.4-2.798v0c15.4-2.4 33.798-5.4 53.6-8.4v0c39.2-6 83.398-12 110.798-11.8v0c17 0 28.202 4 35.8 8.602v0c7.798 4.6 12.6 10.398 15.4 15.8v0c1.798 3.398 2.6 6.598 2.798 7.798v0c0 0.4 0 0.4 0 0.4v0c0.202 14-4.4 32.2-4.798 33.2v0l-1.202 4v4.2c0 0 0 0 0 6.6v0c0 7.2 2.202 12.2 4 15.4v0c1.8 3.2 3.4 5.2 4.8 6.8v0c2.798 3 4.798 4.6 6.798 6.2v0c3.8 3 7.4 5.6 11 8.4v0c7.202 5.6 14.202 12.2 17.602 18.4v0c2.398 4 3.398 7.4 3.398 11.8v0c-0.2 7.6-1.798 11.6-4.6 16.2v0c-2.798 4.6-7.2 9-12.6 14.2v0c-3.6 3.8-8 7.4-13 15.2v0c-2.8 4.4-5.8 11.4-6 20.4v0c0 7.6 2.2 12.8 4 16.4v0c1.8 3.6 3.6 6.2 5.4 8.4v0c3.4 4.2 6.2 7.4 9.2 10.4v0c5.6 6 10.4 12 12.8 16.8v0c1.6 3.2 2.2 5.8 2.2 8.4v0c0 1.4-0.2 2.4-1 4.2v0c-0.798 1.8-2.4 4.4-5 7.2v0c-5 5.8-13.6 12.4-22.2 19.6v0c-5.8 5-12 9.8-18.202 18.8v0c-3.398 5.2-7.398 12.8-7.398 23.2v0c0 6.6 1.798 13 3.6 17v0c1.798 4.2 3.2 6.4 4 7.8v0c1.6 3 2.2 3.6 3.4 9.2v0c0.798 3.6 1.398 9 1.398 17v0c0 3.6-0.398 6-1.2 7.8v0c-0.6 1.8-1.6 3.4-3.6 5.6v0c-3.8 4.4-14.4 11.4-36.202 17.4v0c-14.398 4-33.6 7.6-57.998 10.4v0c-33 4-74.8 6-127.8 6v0c-98.6 0-166.798-10.4-220.4-23.2v0c-53.6-12.8-92.798-28.4-134.798-39.8v0c-27.8-7.6-57-12.8-90-12.8v0c-10.202 0-20.8 0.6-32 1.6v0l5.798 59.8c9.202-0.8 18-1.2 26.202-1.2v0c26.6 0 49.6 4.2 74.4 10.8v0c24.798 6.6 51.398 16 83.6 25.8v0c64.6 19.4 150.4 39 287.2 39v0c71.4 0 124.6-3.6 165-10.2v0c40.2-6.8 68.4-16.4 89.4-32.4v0c13.798-10.4 23.798-24.8 28.2-39.8v0c2.6-8.4 3.4-16.8 3.4-24.6v0c0-17.2-2.2-30.2-5.6-40.4v0c-0.8-2.4-1.6-4.6-2.6-6.6v0c0.6-0.4 1.2-1 1.798-1.4v0c9-7.6 22.8-17.6 34.202-33.6v0c7.398-10.6 13.798-25.2 13.798-42v0c0-16.8-5.6-31.2-12-41.8v0c-4.4-7.4-9.2-13.4-13.6-18.4v0c6.2-6.4 13.8-15.4 19.6-27.6v0c5.202-10.8 8.6-24 8.6-38.6v0c0-20.8-8-38.2-17.2-50.8v0c-9.4-12.6-20-21.4-27.8-27.4v0c-0.2-0.2-0.398-0.2-0.398-0.4v0c0.2-0.8 0.398-1.6 0.398-2.4v0c1.8-9 3.602-21 3.602-34v0c0-10.398-2.602-20.398-7-30.6v0c-4.602-10.2-11.202-20.4-20.602-29.8v0c-18.798-18.798-48.6-32.398-86.398-32.2v0c-30.4 0-68.4 5-104.6 10.2v0c-36 5.4-69.8 11.202-87.4 13.4v0c-4.8 0.6-8.6 0.8-9 0.8v0c-2 0.2-7.202-1.6-11-5.202v0c-3.8-3.6-5.6-7.798-5.6-11.798v0c0-18.8 6.2-37.8 16.2-59.6v0c9.8-21.8 23-45.602 32.4-73.602v0c6.4-18.798 10.798-39.6 10.798-62.398v0c0-23.4-6.398-45.4-17-64v0c-10.6-18.602-25.398-34.4-44-44.8v0c-12.2-6.8-26.398-11.2-41.6-11.2v0h-0.2c-8.986 0.2-17.986 2-26.188 5.398v0z" />
<glyph unicode="&#xe62a;" d="M885.898 593.4c6.202-6.4 13.8-15.4 19.602-27.6 5.2-10.8 8.6-24 8.6-38.6 0-20.8-8-38.2-17.202-50.8-9.4-12.6-20-21.4-27.798-27.4-0.202-0.2-0.4-0.2-0.4-0.4 0.2-0.8 0.4-1.6 0.4-2.4 1.798-9 3.6-21 3.6-34 0-10.398-2.6-20.398-7-30.6-4.6-10.2-11.202-20.4-20.6-29.8-18.8-18.798-48.6-32.398-86.4-32.2-30.4 0-68.4 5-104.6 10.2-36 5.4-69.8 11.202-87.4 13.4-4.798 0.6-8.6 0.8-8.798 0.8-2 0.2-7.202-1.6-11-5.202-3.8-3.6-5.602-7.798-5.602-11.798 0-18.8 6.202-37.8 16.202-59.6 9.798-21.8 23-45.602 32.4-73.602 6.398-18.798 10.798-39.6 10.798-62.398 0-23.4-6.4-45.4-17-64-10.6-18.602-25.4-34.4-44-44.8-12.2-6.8-26.4-11.2-41.6-11.2h-0.2c-9.202 0-18.4 1.798-26.4 5.2-8.202 3.4-15 8.6-20.4 14.2-10.8 11.4-15.6 24.202-18.2 35.202-1.602 7.4-2.4 14.2-2.4 20.4 0 34.2-13.4 65-35.202 94.798-21.798 29.8-51.6 57.202-80.2 82.6-19.2 16.8-37.8 32.602-53.6 48.4-20.4 20.4-32 43.202-41.4 63-9.4 20-17.2 37.2-26.4 49.4-6.2 8.202-13 14.4-22.4 19.6-12.398 6.8-31.2 12-61.398 12v60l2.4 233.8v60.2c9.202-0.8 18-1.2 26.202-1.2 26.6 0 49.6 4.2 74.4 10.8 24.798 6.6 51.398 16 83.6 25.8 64.6 19.4 150.4 39 287.4 39 71.398 0 124.6-3.6 164.998-10.2 40.202-6.8 68.4-16.4 89.4-32.4 13.8-10.4 23.8-24.8 28.202-39.8 2.6-8.4 3.398-16.8 3.398-24.6 0-17.2-2.2-30.2-5.6-40.4-0.798-2.4-1.6-4.6-2.6-6.6 0.6-0.4 1.2-1 1.8-1.4 9-7.6 22.798-17.6 34.2-33.6 7.4-10.6 13.8-25.2 13.8-42s-5.602-31.2-12-41.8c-4.602-7.4-9.4-13.4-13.602-18.4z" />
<glyph unicode="&#xe62b;" d="M216 840c22 0 40-18 40-40v-85c0-22-18-40-40-40h-176c-22 0-40 18-40 40v85c0 22 18 40 40 40h176M196 780h-136v-45h136v45zM600 840c22 0 40-18 40-40v-85c0-22-18-40-40-40h-176c-22 0-40 18-40 40v85c0 22 18 40 40 40h176M580 780h-136v-45h136v45zM984 840c22 0 40-18 40-40v-85c0-22-18-40-40-40h-176c-22 0-40 18-40 40v85c0 22 18 40 40 40h176M964 780h-136v-45h136v45zM216 540c22 0 40-18 40-40v-85c0-22-18-40-40-40h-176c-22 0-40 18-40 40v85c0 22 18 40 40 40h176M196 480h-136v-45h136v45zM600 540c22 0 40-18 40-40v-85c0-22-18-40-40-40h-176c-22 0-40 18-40 40v85c0 22 18 40 40 40h176M580 480h-136v-45h136v45zM984 540c22 0 40-18 40-40v-85c0-22-18-40-40-40h-176c-22 0-40 18-40 40v85c0 22 18 40 40 40h176M964 480h-136v-45h136v45zM216 240c22 0 40-18 40-40v-85c0-22-18-40-40-40h-176c-22 0-40 18-40 40v85c0 22 18 40 40 40h176M196 180h-136v-45h136v45zM600 240c22 0 40-18 40-40v-85c0-22-18-40-40-40h-176c-22 0-40 18-40 40v85c0 22 18 40 40 40h176M580 180h-136v-45h136v45zM984 240c22 0 40-18 40-40v-85c0-22-18-40-40-40h-176c-22 0-40 18-40 40v85c0 22 18 40 40 40h176M964 180h-136v-45h136v45z" />
<glyph unicode="&#xe62c;" d="M167.024 816.98c20.99 0 38.164-17.174 38.164-38.164v-79.19c0-20.99-17.174-38.164-38.164-38.164h-106.86c-20.99-0.002-38.164 17.172-38.164 38.162v79.192c0 20.99 17.174 38.164 38.164 38.164h106.86M147.942 759.734h-68.696v-41.026h68.696v41.026zM960.836 816.98c20.99 0 38.164-17.174 38.164-38.164v-79.19c0-20.99-17.174-38.164-38.164-38.164h-641.156c-20.99 0-38.164 17.174-38.164 38.164v79.19c0 20.99 17.174 38.164 38.164 38.164h641.156M941.754 759.734h-602.992v-41.026h602.992v41.026zM167.024 530.75c20.99 0 38.164-17.174 38.164-38.164v-79.19c0-20.99-17.174-38.164-38.164-38.164h-106.86c-20.99 0-38.164 17.174-38.164 38.164v79.19c0 20.99 17.174 38.164 38.164 38.164h106.86M147.942 473.502h-68.696v-41.026h68.696v41.026zM960.836 530.75c20.99 0 38.164-17.174 38.164-38.164v-79.19c0-20.99-17.174-38.164-38.164-38.164h-641.156c-20.99 0-38.164 17.174-38.164 38.164v79.19c0 20.99 17.174 38.164 38.164 38.164h641.156M941.754 473.502h-602.992v-41.026h602.992v41.026zM167.024 244.52c20.99 0 38.164-17.176 38.164-38.164v-79.192c0-20.99-17.174-38.164-38.164-38.164h-106.86c-20.99 0-38.164 17.174-38.164 38.164v79.192c0 20.988 17.174 38.164 38.164 38.164h106.86M147.942 187.274h-68.696v-41.028h68.696v41.028zM960.836 244.52c20.99 0 38.164-17.176 38.164-38.164v-79.192c0-20.99-17.174-38.164-38.164-38.164h-641.156c-20.99 0-38.164 17.174-38.164 38.164v79.192c0 20.988 17.174 38.164 38.164 38.164h641.156M941.754 187.274h-602.992v-41.028h602.992v41.028z" />
<glyph unicode="&#xe62d;" d="M413.312 865c20.454 0 37.188-16.734 37.188-37.188v-282.624c0-20.454-16.734-37.188-37.188-37.188h-342.124c-20.454 0-37.188 16.734-37.188 37.188v282.624c0 20.454 16.734 37.188 37.188 37.188h342.124M394.72 809.218h-304.938v-245.438h304.938v245.438zM948.812 865c20.454 0 37.188-16.734 37.188-37.188v-282.624c0-20.454-16.734-37.188-37.188-37.188h-342.124c-20.454 0-37.188 16.734-37.188 37.188v282.624c0 20.454 16.734 37.188 37.188 37.188h342.124M930.22 809.218h-304.938v-245.438h304.938v245.438zM413.312 389c20.454 0 37.188-16.734 37.188-37.188v-282.624c0-20.454-16.734-37.188-37.188-37.188h-342.124c-20.454 0-37.188 16.734-37.188 37.188v282.624c0 20.454 16.734 37.188 37.188 37.188h342.124M394.72 333.218h-304.938v-245.438h304.938v245.438zM948.812 389c20.454 0 37.188-16.734 37.188-37.188v-282.624c0-20.454-16.734-37.188-37.188-37.188h-342.124c-20.454 0-37.188 16.734-37.188 37.188v282.624c0 20.454 16.734 37.188 37.188 37.188h342.124M930.22 333.218h-304.938v-245.438h304.938v245.438z" />
<glyph unicode="&#xe62e;" d="M719.2 960h-414.598c-31.8 0-57.4-25.8-57.4-57.6v-60c0.202-31.8 25.8-57.4 57.6-57.6h107.8v-438.8c0.2-31.8 25.8-57.4 57.6-57.6v0h81.798c31.8 0.2 57.402 25.798 57.602 57.6v438.8h109.598c31.8 0 57.402 25.8 57.602 57.6v60c0 31.8-25.802 57.6-57.602 57.6zM468.402 346v0 0 0zM413.8 843.6h-107.798v57.6h412v-57.6h-109.598c-31.8 0-57.402-25.8-57.602-57.6v-438.8h-79.4v438.8c-0.202 32-25.8 57.6-57.602 57.6zM332.3-10.8l-89.4 89.4h538.202l-89.402-89.4c-11.8-11.798-11.8-30.798 0-42.398 11.8-11.8 30.8-11.8 42.402 0l161.796 161.798-161.796 161.8c-11.8 11.798-30.8 11.798-42.402 0-5.8-5.8-8.8-13.6-8.8-21.202 0-7.6 3-15.398 8.8-21.2l89.402-89.4h-538.202l89.4 89.4c11.8 11.8 11.8 30.8 0 42.4-11.798 11.798-30.798 11.798-42.4 0v0l-161.798-161.8 161.798-161.798c11.8-11.8 30.8-11.8 42.4 0 11.802 11.8 11.802 30.8 0 42.4z" />
<glyph unicode="&#xe62f;" d="M253.6 64.5c-34.8 0.2-62.8 28.2-63 63v0 507c0 0.6-0.2 0.8-0.6 1.4v0c-0.6 0.4-0.8 0.6-1.4 0.6v0h-125.6c-34.8 0.2-62.8 28.2-63 63v0 69.2c0.2 34.8 28.2 62.8 63 63v0h477.8c34.8-0.2 62.8-28.2 63-63v0-69.2c-0.2-34.8-28.2-62.8-63-63v0h-127.8c-0.6 0-0.8-0.2-1.4-0.6v0c-0.4-0.6-0.6-0.8-0.6-1.4v0-507.2c-0.202-34.8-28.202-62.8-63-63v0l-94.4 0.2zM251.6 127.3c0-0.602 0.2-0.8 0.6-1.402v0c0.6-0.398 0.8-0.598 1.4-0.598v0h94.4c0.6 0 0.798 0.2 1.4 0.598v0c0.398 0.602 0.6 0.8 0.6 1.402v0 507.2c0.2 34.8 28.2 62.8 63 63v0h127.8c0.602 0 0.8 0.2 1.4 0.6v0c0.4 0.6 0.6 0.8 0.6 1.4v0 69.2c0 0.6-0.2 0.8-0.6 1.4v0c-0.6 0.4-0.798 0.6-1.4 0.6v0h-477.8c-0.6 0-0.8-0.2-1.4-0.6v0c-0.4-0.6-0.6-0.8-0.6-1.4v0-69.2c0-0.6 0.2-0.8 0.6-1.4v0c0.6-0.4 0.8-0.6 1.4-0.6v0h125.8c34.8-0.2 62.8-28.2 63-63v0-507.2h-0.2zM967.8 268.3l-89.4-89.4v538.2l89.4-89.4c11.8-11.8 30.8-11.8 42.4 0 11.8 11.8 11.8 30.8 0 42.4l-161.8 161.8-161.798-161.8c-11.8-11.8-11.8-30.8 0-42.4 5.798-5.8 13.6-8.8 21.2-8.8s15.4 3 21.202 8.8l89.398 89.4v-538.2l-89.398 89.4c-11.8 11.798-30.8 11.798-42.4 0-11.8-11.8-11.8-30.8 0-42.4v0l161.798-161.8 161.8 161.8c11.8 11.8 11.8 30.8 0 42.4-11.602 11.6-30.602 11.6-42.402 0z" />
<glyph unicode="&#xe630;" d="M102.918 90.2c-9.612 9.612-9.612 25.088 0 34.538v0l323.242 323.242-323.242 323.242c-9.612 9.612-9.612 25.090 0 34.54v0c9.614 9.612 25.092 9.612 34.54 0v0l357.782-357.782-357.782-357.78c-4.722-4.726-11.078-7.17-17.27-7.17v0c-6.19 0-12.544 2.442-17.27 7.17v0zM521.796 83.030c-13.522 0-24.438 10.916-24.438 24.438v0c0 13.524 10.916 24.44 24.438 24.44v0h382.058c13.522 0 24.438-10.916 24.438-24.44v0c0-13.522-10.916-24.438-24.438-24.438v0h-382.058z" />
<glyph unicode="&#xe631;" d="M842.324 859h-660.648c-44.096 0-80.176-36.080-80.176-80.176v-44.898c0-44.096 36.080-80.176 80.176-80.176h660.648c44.098 0 80.176 36.080 80.176 80.176v44.898c0 44.096-36.078 80.176-80.176 80.176zM874.396 733.926c0-17.318-14.752-32.070-32.070-32.070h-125.876v109.040h125.876c17.318 0 32.070-14.752 32.070-32.070v-44.9zM842.324 551.124h-660.648c-44.096 0-80.176-36.078-80.176-80.176v-44.898c0-44.098 36.080-80.176 80.176-80.176h660.648c44.098 0 80.176 36.078 80.176 80.176v44.898c0 44.098-36.078 80.176-80.176 80.176zM874.396 426.050c0-17.318-14.752-32.070-32.070-32.070h-537.98v109.040h537.98c17.318 0 32.070-14.752 32.070-32.070v-44.9zM842.324 243.25h-660.648c-44.096 0-80.176-36.078-80.176-80.176v-44.898c0-44.098 36.080-80.176 80.176-80.176h660.648c44.098 0 80.176 36.078 80.176 80.176v44.898c0 44.098-36.078 80.176-80.176 80.176zM874.396 118.176c0-17.318-14.752-32.070-32.070-32.070h-331.128v109.040h331.126c17.318 0 32.070-14.752 32.070-32.070v-44.9z" />
<glyph unicode="&#xe632;" d="M428.046-37.574l-232.832 271.546c-11.504 13.332-16.982 30.132-16.982 46.566v0c0 18.262 6.756 36.706 20.634 50.768v0l324.872 324.87c11.87 11.87 27.208 20.818 43.46 27.574v0c16.25 6.756 33.418 11.14 50.218 11.14v0h249.45c37.438 0 67.934-30.496 67.934-67.932v0-200.876c0-16.8-4.564-33.968-11.138-50.218v0c-6.758-16.254-15.888-31.592-27.578-43.462v0l-373.442-373.628c-12.6-12.598-29.218-19.174-45.654-19.174v0h-0.184c-18.076 0-36.158 8.034-48.758 22.826v0zM584.364 642.48c-12.054-4.93-23.192-12.052-29.036-17.896v0l-324.868-325.050c-4.75-4.752-7.67-11.872-7.49-19.176v0c0-6.576 2.192-12.784 6.21-17.534v0l232.65-271.544c4.384-5.114 9.682-7.12 15.16-7.304v0c4.928 0 9.858 1.826 14.244 6.030v0l373.624 373.624c6.028 5.844 13.148 16.982 17.896 29.038v0c4.932 11.868 7.852 24.834 7.852 33.234v0 200.874c0 6.392-2.552 12.052-6.94 16.436v0c-4.38 4.382-10.042 6.94-16.434 6.94v0h-249.634c-0.182 0-0.182 0-0.362 0v0c-8.218 0.182-21.002-2.74-32.872-7.672v0zM696.488 533.642c0 41.088 33.236 74.324 74.324 74.324v0c41.088 0 74.324-33.236 74.324-74.324v0c0-41.088-33.236-74.324-74.324-74.324v0c-41.086 0-74.324 33.236-74.324 74.324v0zM741.048 533.642c0-16.436 13.33-29.766 29.766-29.766v0c16.436 0 29.766 13.332 29.766 29.766v0c0 16.436-13.33 29.766-29.766 29.766v0c-16.436-0.182-29.766-13.512-29.766-29.766v0zM688.816 871.294h-249.628c-16.62 0-33.784-4.564-50.218-11.138-16.254-6.756-31.592-15.888-43.462-27.576l-324.872-325.052c-13.878-13.878-20.636-32.504-20.636-50.766 0-16.436 5.478-33.052 16.982-46.566l75.42-88.020c4.2 16.070 10.774 31.41 19.722 45.47l-61.358 71.584c-4.018 4.566-6.21 10.774-6.21 17.532 0 7.304 2.74 14.426 7.49 19.174l325.054 325.054c5.844 6.026 16.982 13.148 29.032 17.896 11.688 4.932 24.47 7.854 32.87 7.854 0.186 0 0.186 0 0.366 0h249.45c6.39 0 12.054-2.556 16.436-6.94 4.382-4.382 6.942-10.044 6.942-16.434v-17.166h44.554v17.166c-0.182 37.432-30.498 67.928-67.934 67.928z" />
<glyph unicode="&#xe633;" d="M317.71-13.482l-276.346 322.61c-13.772 15.892-20.128 35.846-20.128 55.27v0c0 21.718 7.946 43.614 24.542 60.212v0l386.004 386.004c14.126 13.95 32.314 24.722 51.562 32.844v0c19.422 7.946 39.73 13.244 59.684 13.244v0h296.474c44.498-0.176 80.522-36.2 80.698-80.698v0-238.558c-0.176-19.954-5.296-40.26-13.244-59.684v0c-8.122-19.424-18.716-37.434-32.842-51.56v0l-443.922-443.922c-14.832-15.010-34.61-22.778-54.21-22.778v0h-0.176c-21.542 0-43.086 9.536-58.096 27.016v0zM503.65 794.544c-14.306-5.828-27.55-14.302-34.434-21.366v0l-386.002-386.002c-5.65-5.648-9.004-14.124-9.004-22.776v0c0-7.772 2.648-15.19 7.24-20.66v0l276.524-322.436c5.296-6.004 11.478-8.478 18.008-8.652v0c5.83 0 11.658 2.12 16.776 7.238v0l443.92 443.922c7.062 6.886 15.54 20.128 21.366 34.432v0c6.004 14.126 9.36 29.49 9.182 39.376v0 238.384c0 7.594-3.002 14.48-8.124 19.6v0c-5.12 5.122-12.008 8.124-19.602 8.124v0h-296.472c-0.18 0-0.356 0-0.356 0v0c-9.886 0-25.074-3.354-39.022-9.184v0zM636.79 665.112c0 48.736 39.554 88.29 88.29 88.29v0c48.736 0 88.292-39.554 88.292-88.29v0c0-48.736-39.554-88.29-88.292-88.29v0c-48.914 0.002-88.29 39.554-88.29 88.29v0zM689.764 665.112c0-19.424 15.892-35.316 35.314-35.316v0c19.424 0 35.316 15.892 35.316 35.316v0c0 19.424-15.892 35.316-35.316 35.316v0c-19.598 0-35.314-15.892-35.314-35.316v0z" />
<glyph unicode="&#xe634;" d="M944 832h-864c-44 0-80-36-80-80v-608c0-44 36-80 80-80h864c44 0 80 36 80 80v608c0 44-36 80-80 80zM964 144c0-10.8-9.202-20-20-20h-864c-10.8 0-20 9.2-20 20v608c0 10.8 9.2 20 20 20h864c10.798 0 20-9.2 20-20v-608zM826.8 725h-629.6c-32 0-58.2-29.2-58.2-65v-424c0-35.8 26.2-65 58.2-65h629.4c32 0 58.2 29.2 58.2 65v424c0.2 35.8-26 65-58 65zM849 236c0-15.6-10.202-29-22.202-29h-629.598c-12 0-22.2 13.2-22.2 29v424c0 15.6 10.2 29 22.2 29h629.4c12 0 22.2-13.2 22.2-29l0.2-424zM99 472c-13.202 0-24-10.8-24-24s10.798-24 24-24c13.2 0 24 10.8 24 24 0 13.2-10.8 24-24 24z" />
<glyph unicode="&#xe635;" d="M984 878.5h-944c-22 0-40-18-40-40v-781c0-22 18-40 40-40h944c22 0 40 18 40 40v781c0 22-18 40-40 40zM964 724.5h-97v94h97v-94zM542 818.5h102.6v-94h-102.6v94zM379.4 818.5h102.6v-94h-102.6v94zM217 818.5h102.6v-94h-102.6v94zM319.4 664.5v-587h-102.6v587h102.6zM379.4 664.5h102.6v-587h-102.6v587zM542 664.5h102.6v-587h-102.6v587zM704.398 664.5h102.602v-587h-102.602v587zM704.398 724.5v94h102.602v-94h-102.602zM157 818.5v-94h-97v94h97zM60 664.5h97v-587h-97v587zM867 77.5v587h97v-587h-97z" />
<glyph unicode="&#xe636;" d="M686 136.4h-111l-174 290 174 290h111c16.6 0 30 13.4 30 30s-13.4 30-30 30h-145l-175-291.6-175 291.6h-145c-16.6 0-30-13.4-30-30s13.4-30 30-30h111l174-290-174-290h-111c-16.6 0-30-13.4-30-30s13.4-30 30-30h145l175 291.8 175-291.6h145c16.6 0 30 13.4 30 30s-13.4 29.8-30 29.8zM988.6 607.8h-74c23 22.6 42.4 43.2 57.2 64.2 17 24.4 27.8 50.4 27.8 79.2 0 22.6-7.202 46.2-23.8 64.6-16.4 18.6-42.6 30.4-75 30.2-34.6 0-64.4-13.2-85.4-30.6-7-6.4-8.4-14.8-4.6-23.2l12.4-27.6c6-13.4 14.2-11.4 21.8-6.4l4.6 3.8c2 1.6 4.2 3.4 6.6 5v0 0c10 7 23.6 13.2 37.6 13 16-0.2 22.6-4.4 26.8-9.2 4.2-5 7-13.4 7-24 0-14.8-5.4-29-20.202-48.8-14.798-19.8-38.798-44-72.2-75.8l-17.202-16.6c-6.398-6.2-16.398-18.8-16.398-29.6v-10.8c0-12 8.798-23.4 22.2-23.4h163.2c10.202 0 19.202 5 19.202 17.2v33.6c-0.2 15-17.6 15.2-17.6 15.2z" />
<glyph unicode="&#xe637;" d="M512 670c-122.6 0-222-99.4-222-222s99.4-222 222-222 222 99.4 222 222-99.4 222-222 222zM626.6 333.4c-29.4-29.4-69.8-47.4-114.6-47.4-44.8 0-85.202 18-114.6 47.4-29.4 29.4-47.4 69.8-47.4 114.6 0 44.8 18 85.2 47.4 114.6 29.4 29.4 69.8 47.4 114.6 47.4 44.798 0 85.2-18 114.6-47.4 29.4-29.4 47.4-69.8 47.4-114.6 0-44.8-18-85.2-47.4-114.6zM512 707c16.6 0 30 13.4 30 30v124c0 16.6-13.4 30-30 30s-30-13.4-30-30v-124c0-16.6 13.4-30 30-30zM716.398 622.4c7.602 0 15.4 3 21.202 8.8l87.6 87.6c11.8 11.8 11.8 30.8 0 42.4-11.8 11.8-30.8 11.8-42.4 0l-87.6-87.6c-11.8-11.8-11.8-30.8 0-42.4 5.8-6 13.4-8.8 21.198-8.8zM925 478h-124c-16.602 0-30-13.4-30-30s13.398-30 30-30h124c16.6 0 30 13.4 30 30s-13.4 30-30 30zM737.6 264.8c-11.8 11.798-30.8 11.798-42.4 0-11.8-11.8-11.8-30.8 0-42.4l87.6-87.6c5.8-5.8 13.6-8.8 21.2-8.8 7.602 0 15.4 3 21.202 8.8 11.798 11.798 11.798 30.798 0 42.398l-87.602 87.602zM512 189c-16.6 0-30-13.4-30-30v-124c0-16.6 13.4-30 30-30s30 13.4 30 30v124c0 16.6-13.4 30-30 30zM286.4 264.8l-87.6-87.6c-11.8-11.8-11.8-30.8 0-42.4 5.8-5.8 13.602-8.8 21.202-8.8s15.4 3 21.2 8.8l87.6 87.6c11.8 11.798 11.8 30.798 0 42.4-11.602 11.8-30.602 11.8-42.402 0zM253 448c0 16.6-13.4 30-30 30h-124c-16.6 0-30-13.4-30-30s13.4-30 30-30h124c16.6 0 30 13.4 30 30zM286.4 631.2c5.798-5.8 13.6-8.8 21.2-8.8s15.4 3 21.2 8.8c11.8 11.8 11.8 30.8 0 42.4l-87.6 87.6c-11.798 11.8-30.798 11.8-42.4 0-11.798-11.8-11.798-30.8 0-42.4l87.6-87.6z" />
<glyph unicode="&#xe638;" d="M983.8 769.4h-250v56.2c-0.2 38.8-31.2 70-70 70.202h-303.8c-38.6-0.202-69.8-31.402-70-70.202v-56.2h-250c-22 0-40-18-40-40v-689.2c0-22 18-40 40-40h943.8c22 0 40 18 40 40v689c0 22.2-18 40.2-40 40.2zM350 825.4c0 2.798 1 5 3 7s4.4 3 7 3h304c2.798 0 5-1 7-3s3-4.4 3-7v-56.2h-324v56.2zM963.8 60h-903.8v342.8c33.4-18.202 68.2-18.202 68.2-18.202h769.4c0 0 33.6 0 66.2 17.6v-342.198zM963.8 532v0l-0.2-19c0-37-14.8-50.2-27.8-57.4-17.4-9.6-36.798-10.6-38.798-10.798h-768.802c-0.2 0-19.6 0.798-37.2 9.6-15.202 7.6-30.8 20.6-30.8 58.4v19h-0.2v177.398h903.8v-177.2zM513 513c35.4 0 64.2 28.8 64.2 64.2s-28.798 64.202-64.2 64.202-64.2-28.802-64.2-64.202c0-35.6 28.8-64.2 64.2-64.2z" />
<glyph unicode="&#xe639;" d="M941.8 392.8c-13.4-6.202-28.4-10.2-44.2-10.2h-767.6c-16 0-31.202 3.798-45.202 9.798s-26.798 14.202-38.998 23.402c-16.8 13-32 28.2-45.8 44v-419.8c0-22 18-40 40-40h943.8c22 0 40 18 40 40v424.6c-6.6-8.6-13.6-17-21-25-17.6-18.8-37.2-36-61-46.8zM983.8 769.6h-250v56.2c-0.2 38.798-31.2 70-70 70.2h-303.8c-38.6-0.2-69.8-31.4-70-70.2v-56.2h-250c-22 0-40-18-40-40v-169.2c0.4-0.6 0.798-1.2 1.2-1.8 15.6-24 37.4-54 61-77.2 15.6-15.6 32.202-27.8 46.202-33.8 8.2-3.398 15.2-5 21.6-5h767.6c5.6 0 11.6 1.4 18.798 4.4 7 3 14.8 8 22.6 14.4 15.8 12.8 32 31.6 46 51.2 16.602 23.202 30.202 47.202 39 64v152.8c-0.2 22.2-18.2 40.2-40.2 40.2zM513 513.202c-35.4 0-64.202 28.798-64.202 64.2s28.8 64.2 64.202 64.2 64.2-28.798 64.2-64.2c-0.2-35.602-28.8-64.2-64.2-64.2zM673.8 769.6h-323.8v56c0 2.8 1 5 3 7s4.4 3 7 3h304c2.798 0 5-1 7-3s3-4.398 3-7v-56h-0.2z" />
<glyph unicode="&#xe63a;" d="M684 198h-111l-174 290 174 290h111c16.6 0 30 13.4 30 30s-13.4 30-30 30h-145l-175-291.6-175 291.6h-145c-16.6 0-30-13.4-30-30s13.4-30 30-30h111l174-290-174-290h-111c-16.6 0-30-13.4-30-30s13.4-30 30-30h145l175 291.6 175-291.6h145c16.6 0 30 13.4 30 30s-13.4 30-30 30zM986.6 134.4h-74c23 22.6 42.4 43.2 57.2 64.2 17 24.4 27.8 50.4 27.8 79.202 0 22.6-7.202 46.2-23.8 64.6s-42.6 30.2-75 30.2c-34.6 0-64.4-13.2-85.4-30.6-7-6.4-8.4-14.8-4.6-23.2l12.4-27.602c6-13.398 14.2-11.398 21.8-6.398l4.6 3.798c2 1.6 4.2 3.4 6.6 5v0 0c10 7 23.6 13.202 37.6 13 16-0.2 22.6-4.4 26.8-9.2 4.2-5 7-13.4 7-24 0-14.8-5.4-29-20.202-48.8-14.798-19.798-38.798-44-72.2-75.798l-17.202-16.602c-6.398-6.2-16.398-18.798-16.398-29.6v-10.798c0-12 8.798-23.4 22.2-23.4h163.2c10.202 0 19.202 5 19.202 17.2v33.6c-0.2 14.998-17.6 15.198-17.6 15.198z" />
<glyph unicode="&#xe63b;" d="M989 508h-275.4c-33.4 21-72.202 39.4-116.8 56h0.202c-60.6 22.6-102.6 40.6-125.8 57.2-11.6 8.2-18.4 15.6-22.2 22.2-3.8 6.8-5.8 13.6-5.8 24.2 0 7 1.6 13.6 5 20 5 9.4 14.202 19 30.6 26.8 16.202 7.8 39.602 13.2 70.4 13.2 41.8 0 79.2-6.8 106-13.8 13.4-3.4 24-6.8 31.2-9.4 3.602-1.2 6.4-2.2 8-3 0.8-0.4 1.602-0.6 1.8-0.8 0.2 0 0.4-0.2 0.4-0.2v0c8.2-3.6 17-5.4 25.6-5.4 13.8 0 27.2 4.6 37.8 12.8 10.798 8.2 18.798 20.2 22.6 33.8l37 132.8c4 14.2-2.8 29.2-16.202 35.4-59.6 28.4-141.002 50.2-251.6 50.2-115.2 0-210.8-31.8-278.4-87.2-33.8-27.8-60.4-61.4-78.4-99.2-18-37.8-27.4-80-27.4-124.2 0-37.8 7.2-73 21-104.8 5.4-12.8 12-24.8 19.4-36.4h-178c-16.6 0-30-13.4-30-30s13.4-30 30-30h959c16.6 0 30 13.4 30 30 0 16.4-13.4 29.8-30 29.8zM284 508c-17.202 18.6-30.6 38.6-40 60.4-10.4 24.2-16 50.8-16 81 0 35.6 7.4 68.6 21.6 98.2 21.2 44.4 57.2 81.8 108 108.8 50.6 27 116 43 194.2 43 88.4 0 153.4-14.6 202.6-34.2l-30-107.4c-0.398-1.6-1-2-1.2-2.2s-0.4-0.2-1-0.2c-0.4 0-1 0-2 0.4-2.2 0.8-74.4 31.8-171.2 32-50.4 0-91-11.8-120.4-33.4-14.6-10.8-26.2-24-34.2-39-7.8-15-11.8-31.6-11.8-48 0-19.2 4.4-38.2 14-54.6 7.2-12.4 16.8-23 28-32.4 16.8-14 37.4-25.6 62.4-37.2 24.4-11.4 53.2-22.6 86.798-35.4l-289.798 0.2zM828.8 388h-70.8c11.6-15.8 20.398-32.6 26.798-50.8 8.4-24 12.8-50.398 12.8-80.6-0.202-70.798-26.202-133.6-81.202-180.798-55-47-141.398-79-264.798-79-49.2 0-104.8 10.6-147.4 21.6-21.2 5.4-39.4 11-52 15-6.4 2-11.4 3.798-14.798 5-1.602 0.6-3 1-3.8 1.4-0.8 0.2-1.2 0.398-1.2 0.398v0c-1.8 0.602-3.8 2.202-5.4 4.602-1.6 2.398-2.4 5.398-2.4 7.6 0 0.798 0 1.6 0.2 2.2l25 101c58-24.798 134.4-45.4 214-45.4 52.602 0 95.8 10.602 128.202 33.4 16 11.4 29 26 37.798 42.8 8.6 17 12.8 35.798 12.8 55.4 0 18.398-3.6 36.6-11.8 53-6.2 12.398-14.6 23.398-24.8 33.398-15.4 15-34.6 27.4-57.6 39-14.602 7.4-31 14.4-49 21.4h-155.4c31-16.798 65-31.6 101.4-44.798l0.2-0.202c54.8-18.798 91.6-36.4 111.4-52.798 10-8.202 15.798-15.602 19.6-23 3.6-7.4 5.4-15.202 5.6-26 0-11-2.2-20-6.2-27.8-6-11.6-16.4-21.8-34.6-30-18.202-8-44.202-13.4-77.4-13.4-83.6-0.2-169.202 27.8-220.6 54.8-8.202 4.4-18 4.6-26.4 0.798-8.4-3.798-14.8-11.2-17-20.398l-33.8-136.602c-1.4-5.6-2-11.2-2-16.798 0-15.202 4.8-29.4 12.8-41.4s19.798-22 34.6-27.4c0.6-0.2 32.2-11.798 77.6-23.6 45.4-11.6 104.8-23.4 162.4-23.6h0.2c133.4 0 235 34.798 303.8 93.4 69 58.598 102.6 140.798 102.4 226.798 0 35.8-5.202 69.6-16.202 100.6-3.598 10.6-7.998 21-12.998 30.8z" />
<glyph unicode="&#xe63c;" d="M778 768c22 0 40-18 40-40v-560c0-22-18-40-40-40h-532c-22 0-40 18-40 40v560c0 22 18 40 40 40h532M758 708h-492v-520h492v520z" />
<glyph unicode="&#xe63d;" d="M778 768h-532c-22 0-40-18-40-40v-560c0-22 18-40 40-40h532c22 0 40 18 40 40v560c0 22-18 40-40 40z" />
<glyph unicode="&#xe63e;" d="M206 128c-9.6 0-16 8.4-16 23.8v592.4c0 15.2 6.4 23.8 16 23.8 5 0 11-2.4 17.2-7.2l369.2-287c18.2-14.2 18.2-37.4 0-51.6l-369.2-287c-6.2-4.8-12.2-7.2-17.2-7.2M250 232.2l277.8 215.8-277.8 215.8v-431.6zM646 128c-22 0-40 18-40 40v560c0 22 18 40 40 40h112c22 0 40-18 40-40v-560c0-22-18-40-40-40h-112M666 188h72v520h-72v-520z" />
<glyph unicode="&#xe63f;" d="M224 128c5 0 11 2.4 17.2 7.2l369.2 287c18.2 14.202 18.2 37.4 0 51.6l-369.2 287c-6.2 4.8-12.2 7.2-17.2 7.2-9.6 0-16-8.4-16-23.8v-592.4c0-15.2 6.4-23.8 16-23.8zM664 128h112c22 0 40 18 40 40v560c0 22-18 40-40 40h-112c-22 0-40-18-40-40v-560c0-22 18-40 40-40z" />
<glyph unicode="&#xe640;" d="M788 768c9.6 0 16-8.4 16-23.8v-592.4c0-15.202-6.4-23.8-16-23.8-5 0-11 2.4-17.202 7.2l-369.198 287c-18.2 14.202-18.2 37.4 0 51.6l369.2 287c6.2 4.8 12.2 7.2 17.2 7.2M744 663.8l-277.8-215.8 277.8-215.8v431.6zM348 768c22 0 40-18 40-40v-560c0-22-18-40-40-40h-112c-22 0-40 18-40 40v560c0 22 18 40 40 40h112M328 708h-72v-520h72v520z" />
<glyph unicode="&#xe641;" d="M800 768c-5 0-11-2.4-17.202-7.2l-369.198-287c-18.2-14.2-18.2-37.4 0-51.6l369.2-287c6.2-4.8 12.2-7.2 17.2-7.2 9.6 0 16 8.4 16 23.8v592.4c0 15.2-6.4 23.8-16 23.8zM360 768h-112c-22 0-40-18-40-40v-560c0-22 18-40 40-40h112c22 0 40 18 40 40v560c0 22-18 40-40 40z" />
<glyph unicode="&#xe642;" d="M972.158 571.536c-6.3 8.338-13.896 11.674-20.012 13.712-6.3 1.854-12.232 2.41-18.53 2.41h-281.466c-2.596-0.186-7.968 1.482-12.416 5.002-4.632 3.334-7.966 8.154-8.708 11.118l-87.088 273.314c-2.224 7.040-5.004 13.34-9.824 19.64-2.59 3.15-5.742 6.486-10.376 9.264s-10.746 5.002-17.418 5.002c-6.67 0-12.784-2.038-17.416-5.002-6.856-4.262-10.746-9.45-13.712-14.082-2.964-4.818-4.818-9.636-6.486-14.824v0l-86.902-273.5c-0.926-2.964-4.078-7.784-8.71-11.118-4.448-3.52-9.82-5.002-12.416-5.002h-281.652c-8.338-0.186-16.122-0.742-25.016-5.002-4.448-2.224-9.45-5.558-13.526-11.118-4.076-5.376-6.672-12.972-6.486-19.828 0-5.188 1.112-9.636 2.592-13.342 2.224-5.558 5.374-9.634 8.526-13.34 3.15-3.522 6.67-6.486 10.376-9.266l227.73-168.99c1.854-1.296 4.262-4.264 6.114-8.338 1.854-3.894 2.964-8.896 2.964-12.788 0-2.222-0.368-4.262-0.738-5.558l-86.908-273.128c-2.038-6.296-3.334-12.412-3.334-19.456 0-6.486 1.112-14.824 7.412-23.348 3.15-4.076 7.596-7.784 12.6-10.006 5.002-2.22 10.006-2.964 14.268-2.964 7.042 0 12.6 1.854 17.232 3.89 4.822 2.042 8.894 4.632 12.972 7.784l227.73 168.99c2.224 1.67 7.412 3.708 12.97 3.522 5.56 0 10.748-1.852 12.97-3.522l227.73-168.99c4.076-2.964 8.154-5.558 12.97-7.784 4.82-2.038 10.192-3.89 17.232-3.89h0.188c4.262 0 9.266 0.742 14.082 2.964 7.412 3.338 13.712 10.006 16.492 16.308 2.964 6.296 3.518 12.044 3.708 17.044 0 7.042-1.482 13.158-3.336 19.456l-86.906 273.5c-0.372 1.296-0.742 3.336-0.742 5.558 0 3.89 1.116 8.708 2.966 12.6 1.854 4.078 4.446 7.042 6.116 8.338l227.73 168.992c5 3.706 9.45 7.782 13.528 13.156 2.038 2.594 3.89 5.746 5.37 9.45 1.48 3.706 2.596 8.338 2.596 13.342-0.37 6.858-2.964 14.456-7.040 19.83zM466.206 829.084v0 0 0zM463.798 829.826v0 0z" />
<glyph unicode="&#xe643;" d="M524.812 907.306c-0.366 0-0.552 0-0.924 0-6.658 0-12.758-2.036-17.382-4.996-6.844-4.254-10.728-9.432-13.688-14.056-2.96-4.808-4.808-9.618-6.474-14.796l-86.744-272.994c-0.924-2.96-4.070-7.768-8.694-11.098-4.44-3.514-9.802-4.994-12.392-4.994h-281.132c-8.324-0.186-16.092-0.74-24.97-4.994-4.44-2.22-9.432-5.548-13.5-11.098-4.070-5.364-6.662-12.948-6.472-19.792 0-5.178 1.108-9.618 2.586-13.316 2.22-5.55 5.364-9.618 8.51-13.318 3.146-3.512 6.66-6.472 10.358-9.248l227.312-168.678c1.848-1.294 4.252-4.256 6.102-8.324 1.85-3.886 2.96-8.878 2.96-12.762 0-2.22-0.368-4.254-0.738-5.548l-86.748-272.624c-2.034-6.288-3.33-12.39-3.33-19.42 0-6.474 1.11-14.798 7.398-23.306 3.144-4.066 7.582-7.768 12.576-9.986 4.994-2.216 9.99-2.958 14.244-2.958 7.028 0 12.576 1.85 17.2 3.882 4.812 2.038 8.878 4.624 12.948 7.77l227.312 168.68c2.22 1.666 7.4 3.7 12.946 3.516 0.372 0 0.554 0 0.926 0l-0.19 734.458z" />
<glyph unicode="&#xe644;" d="M977.174 564.308c-6.288 8.32-13.87 11.65-19.97 13.684-6.288 1.848-12.206 2.404-18.49 2.404h-280.872c-2.59-0.186-7.952 1.478-12.388 4.992-4.624 3.328-7.952 8.136-8.692 11.094l-86.904 272.734c-2.218 7.026-4.992 13.312-9.802 19.598-2.586 3.144-5.73 6.472-10.354 9.246s-10.722 4.994-17.38 4.994c-6.654 0-12.754-2.034-17.376-4.994-6.842-4.252-10.724-9.43-13.684-14.052-2.958-4.808-4.808-9.616-6.472-14.792v0l-86.72-272.92c-0.924-2.958-4.068-7.766-8.692-11.094-4.438-3.512-9.798-4.994-12.388-4.994h-281.058c-8.32-0.184-16.086-0.74-24.962-4.992-4.438-2.218-9.43-5.546-13.498-11.094-4.068-5.364-6.66-12.944-6.472-19.786 0-5.176 1.108-9.616 2.586-13.314 2.22-5.546 5.364-9.614 8.508-13.312 3.144-3.514 6.656-6.472 10.354-9.246l227.25-168.632c1.85-1.294 4.252-4.254 6.102-8.32 1.85-3.886 2.958-8.876 2.958-12.76 0-2.218-0.366-4.252-0.736-5.546l-86.724-272.55c-2.034-6.286-3.328-12.386-3.328-19.416 0-6.47 1.11-14.792 7.396-23.296 3.144-4.068 7.58-7.766 12.574-9.986 4.994-2.214 9.986-2.958 14.238-2.958 7.026 0 12.574 1.85 17.196 3.882 4.81 2.038 8.876 4.624 12.944 7.766l227.25 168.634c2.218 1.664 7.396 3.698 12.944 3.514 5.546 0 10.722-1.85 12.944-3.514l227.246-168.634c4.068-2.958 8.136-5.546 12.944-7.766 4.81-2.034 10.17-3.882 17.196-3.882h0.19c4.252 0 9.244 0.74 14.050 2.958 7.396 3.332 13.684 9.986 16.458 16.276 2.958 6.284 3.512 12.020 3.7 17.008 0 7.030-1.478 13.13-3.328 19.416l-86.722 272.92c-0.372 1.294-0.74 3.328-0.74 5.546 0 3.882 1.112 8.692 2.96 12.574 1.85 4.068 4.436 7.026 6.102 8.32l227.248 168.634c4.99 3.698 9.43 7.766 13.498 13.128 2.034 2.588 3.882 5.732 5.36 9.43 1.476 3.698 2.59 8.322 2.59 13.314-0.38 6.84-2.966 14.422-7.034 19.784zM506.22 859.23v0 0 0zM503.816 859.97v0 0zM702.036 384.394c-10.728-7.95-18.306-18.49-23.484-29.584-5.176-11.28-7.95-23.296-7.95-35.874 0-7.396 0.924-14.792 3.328-22.374l71.924-226.324-187.674 139.42c-14.056 10.17-30.142 14.422-45.86 14.422v580.604l71.558-225.214c5.364-16.456 15.906-29.4 28.476-38.83 12.756-9.43 28.104-15.716 45.486-15.902h233.35l-189.154-140.344z" />
<glyph unicode="&#xe645;" d="M785.036-10.2c-7.012 0-12.544 1.844-17.158 3.872v0c-4.798 2.032-8.856 4.614-12.914 7.75v0l-226.75 168.262c-2.21 1.66-7.378 3.692-12.914 3.504v0c-5.536 0-10.702-1.844-12.916-3.504v0l-226.746-168.262c-4.060-2.954-8.118-5.536-12.916-7.75v0c-4.8-2.028-10.148-3.872-17.158-3.872v0c-4.248 0-9.226 0.734-14.208 2.95v0c-4.982 2.214-9.412 5.906-12.546 9.964v0c-6.274 8.484-7.38 16.79-7.38 23.246v0c0 7.012 1.476 13.098 3.322 19.372v0l86.714 272.504c0.37 1.292 0.736 3.32 0.736 5.536v0c0 3.876-1.106 8.672-2.952 12.73v0c-1.844 4.058-4.428 7.012-6.088 8.3v0l-226.56 168.080c-3.69 2.766-7.196 5.718-10.334 9.224v0c-3.136 3.504-6.088 7.564-8.486 13.284v0c-1.476 3.69-2.584 8.302-2.584 13.284v0c-0.184 6.826 2.398 14.39 6.458 19.742v0c4.058 5.534 9.042 8.856 13.468 11.070v0c9.042 4.244 16.792 4.796 24.908 4.982v0h280.252c2.584-0.186 7.932 1.474 12.362 4.982v0c4.612 3.32 7.934 8.118 8.672 11.070v0l86.53 272.318c1.662 5.166 3.69 9.964 6.458 14.76v0c2.956 4.796 6.828 9.78 13.654 14.022v0c4.614 2.768 10.702 4.982 17.34 4.982v0c6.644 0 12.73-2.030 17.344-4.982v0c4.612-2.768 7.748-6.088 10.33-9.226v0c4.982-6.458 7.568-12.73 9.782-19.556v0l86.528-272.318c0.736-2.952 4.060-7.75 8.672-11.070v0c4.426-3.506 9.78-4.982 12.36-4.982v0h280.252c6.274 0 12.176-0.554 18.45-2.398v0c6.274-2.030 13.654-5.352 19.926-13.654v0c4.060-5.35 6.644-12.916 6.458-19.742v0c0-5.166-1.106-9.594-2.58-13.284v0c-1.478-3.69-3.324-6.826-5.35-9.41v0c-4.060-5.35-8.486-9.226-13.468-13.098v0l-226.748-168.264c-1.846-1.29-4.244-4.242-6.088-8.3v0c-1.846-3.876-2.952-8.856-2.952-12.73v0c0-2.214 0.37-4.246 0.734-5.536v0l86.53-272.32c2.030-6.274 3.322-12.36 3.322-19.372v0c0-4.98-0.74-10.7-3.692-16.972v0c-2.768-6.274-8.856-12.918-16.42-16.238v0c-4.43-2.028-9.412-2.95-13.654-2.95v0 0 0zM561.056 214.148l187.262-139.114-71.766 225.828c-2.398 7.378-3.32 14.942-3.32 22.324v0c0 12.546 2.768 24.54 7.932 35.792v0c5.166 11.070 12.728 21.398 23.432 29.52v0l188.924 140.218h-233.020c-17.342 0.184-32.656 6.458-45.384 15.868v0c-12.544 9.41-23.062 22.324-28.414 38.744v0l-71.4 224.534-71.4-224.718c-5.352-16.42-15.87-29.334-28.414-38.746v0c-12.732-9.41-28.044-15.682-45.386-15.866v0h-232.838l188.922-140.216c10.704-7.938 18.266-18.45 23.432-29.52v0c5.166-11.258 7.932-23.25 7.932-35.792v0c0-7.382-0.922-14.762-3.32-22.324v0l-71.766-225.828 187.080 139.296c14.026 10.332 30.074 14.39 45.756 14.39v0c15.68 0.002 31.734-4.242 45.756-14.39v0zM509.212 862.29v0 0 0 0 0zM506.812 863.028v0 0z" />
<glyph unicode="&#xe646;" d="M88.802-62c-8 0-15.6 3.2-21.202 8.8v0c-5.6 5.6-8.798 13.398-8.798 21.2v0 381c0 16.6 13.4 30 30 30v0c16.6 0 30-13.4 30-30v0-351h641v351c0 16.6 13.398 30 30 30v0c16.6 0 30-13.4 30-30v0-381c0-7.8-3.202-15.6-8.8-21.2v0c-5.6-5.602-13.4-8.8-21.2-8.8v0h-701zM238.802 198c-16.6 0-30 13.4-30 30v0c0 16.6 13.4 30 30 30v0h384c16.6 0 30-13.4 30-30v0c0-16.6-13.4-30-30-30v0h-384zM629 297.8l-365.4 117.8c-15.798 5-24.398 22-19.398 37.8v0c5 15.8 22 24.4 37.798 19.4v0l365.4-117.8c15.8-5 24.4-22 19.4-37.8v0c-4-12.798-15.8-20.798-28.6-20.798v0c-2.998-0.202-5.998 0.398-9.2 1.398v0zM665.6 390.6l-311.6 224.4c-13.4 9.6-16.4 28.4-6.798 41.8v0c9.6 13.4 28.398 16.6 41.798 6.8v0l311.6-224.4c13.4-9.6 16.6-28.398 6.8-41.798v0c-5.8-8.202-15-12.4-24.4-12.4v0c-6-0.002-12 1.798-17.4 5.598v0zM729 468l-227.798 309c-9.8 13.4-7 32.2 6.398 42v0c13.4 9.8 32.202 7 42-6.4v0l227.8-309.2c9.798-13.4 7-32.2-6.4-42v0c-5.4-4-11.6-5.8-17.8-5.8v0c-9.398 0-18.398 4.4-24.2 12.4v0zM812.802 522l-121.802 364.2c-5.2 15.8 3.2 32.8 19 38v0c15.8 5.2 32.8-3.2 38-19v0l121.8-364.2c5.2-15.8-3.202-32.8-19-38v0c-3.202-1-6.4-1.6-9.602-1.6v0c-12.396 0.2-24.198 8-28.396 20.6v0zM905.2 546v384c0 16.6 13.4 30 30 30v0c16.602 0 30-13.4 30-30v0-384c0-16.6-13.398-30-30-30v0c-16.6 0-30 13.4-30 30v0z" />
<glyph unicode="&#xe647;" d="M527.9 898.2c-60.2 0-108.798-48.8-109-109 0-60.2 48.8-108.8 109-109 60.202 0 108.8 48.8 109 109-0.198 60.2-48.798 109-109 109zM527.9 740.4c-27 0-48.798 22-49 49 0 27 22 48.8 49 49 27 0 48.8-22 49-49-0.198-27.2-22-49-49-49zM780.302 631v0c13.798 0 27.6 5.4 38 15.8 10.4 10.4 15.798 24.4 15.798 38 0 13.6-5.4 27.6-15.798 38v0c-10.4 10.4-24.4 15.8-38 15.8s-27.6-5.2-38-15.8c-10.4-10.4-15.8-24.2-15.8-38 0-13.6 5.202-27.6 15.8-38 10.4-10.4 24.4-15.8 38-15.8zM780.302 684.8v0 0 0zM780.302 684.8v0 0zM884.9 493.8c-34 0-61.6-27.6-61.6-61.6 0-33.598 26.798-60.8 60.4-61.598-0.4 0-1 0-1.602 0.2 0.8 0 1.602-0.2 2.602-0.2-0.4 0-0.602 0-1 0 0.2 0 0.6 0 0.798 0 0.202 0 0.202 0 0.4 0v0h0.2c33.602 0.2 60.8 27 61.4 60.598 0 0.402 0 0.602 0 1-0.196 34-27.598 61.6-61.598 61.6zM859.702 384.398c-2.8 4.402-3.602 8.002-4.202 10.402v0c1-5 3.202-9.602 6.4-13.402-1 1.204-1.598 2.204-2.198 3zM868.1 375.8c-0.2 0-0.2 0.2-0.398 0.2 2-1.398 4.2-2.602 6.6-3.398-2 0.796-4.202 1.796-6.202 3.198zM886.302 432.2c0-0.798-0.8-1.598-1.6-1.598v0c-0.8 0-1.4 0.798-1.4 1.598s0.798 1.602 1.6 1.602 1.4-0.602 1.4-1.602v0 0zM780.302 249.398c-17.6 0-35.6-6.796-49.202-20.398-13.4-13.398-20.4-31.398-20.4-49s6.8-35.602 20.4-49.2c13.4-13.602 31.4-20.402 49-20.402h0.202c17.798 0 35.6 6.8 49 20.402v0c13.6 13.598 20.4 31.598 20.4 49.2s-6.8 35.602-20.4 49c-13.402 13.398-31.402 20.398-49 20.398zM786.9 173.2c-2-2-4.2-2.8-6.6-2.8-2.6 0-4.8 0.8-6.8 2.8s-2.798 4.2-2.798 6.8c0 2.398 0.798 4.8 2.798 6.602 2 2 4.202 2.796 6.6 2.796 2.602 0 4.8-0.796 6.602-2.796 1.798-2 2.798-4.204 2.798-6.602 0.202-2.602-0.6-5-2.6-6.8zM527.9 152.602c-42.6 0-77.2-34.602-77.4-77.204v-0.2c0-38 27.4-69.598 63.8-76.2l1.2-1.2h12.4c42.8 0 77.4 34.598 77.4 77.398-0.198 42.804-34.8 77.406-77.4 77.406zM501.102 14.2c0 0.2-0.202 0.2-0.202 0.2 0.202 0.202 0.202-0.002 0.202-0.2v0zM503.702 10.2v0c0.798-1 1.798-2.2 3-3.398-1.4 1.198-2.4 2.398-3 3.398zM510.102 79.8c-0.8 5.598-3.4 11-7.202 15.398 2-2.2 3.4-4.398 4.4-6.398 2.002-4 2.6-7 2.802-9v0zM528.302 58c-0.2 0-0.4 0-0.6 0-9.6 0-17.4 7.8-17.4 17.398 0 9.602 7.8 17.402 17.4 17.402s17.4-7.8 17.4-17.402c0-9.598-7.4-17.198-16.8-17.398zM275.5 265c-21.6 0-43.798-8.398-60.398-25-16.8-16.602-25-38.8-25-60.398 0-21.8 8.6-43.602 25-60v0c16.6-16.602 38.6-25 60.2-25h0.2c21.8 0 43.602 8.398 60.202 25 16.6 16.598 25 38.598 25 60.2 0 21.8-8.4 43.8-25 60.2-16.602 16.6-38.602 25.198-60.204 24.998zM293.302 162c-5-5-11.2-7.398-17.8-7.398s-13 2.398-18 7.398-7.398 11.2-7.398 17.602c0 6.796 2.398 13 7.398 18s11.202 7.398 18 7.398c6.602 0 12.8-2.398 17.8-7.398s7.4-11.204 7.4-17.8c0-6.602-2.4-12.802-7.4-17.802zM263.9 432.2c0 51.402-41.6 93-93 93.202h-0.2c-51.4 0-93-41.4-93.202-92.798 0 0.2 0 0.598 0 0.798 0-0.4 0-1 0-1.4v-0.2c0.202-51.2 41.8-92.602 93.202-92.602 51.602 0 93.2 41.6 93.2 93zM77.9 435.602c0.202 1 0.202 2 0.4 2.598-0.198-0.598-0.198-1.4-0.4-2.598zM186.702 470c0.6 0.4 1 0.6 1.6 1-1-0.8-2.2-1.4-3.2-2 0.398 0.2 1 0.6 1.6 1zM177.302 524.8c0 0-0.2 0 0 0v0zM176.102 525v0zM170.9 399.2c-18.2 0-32.798 14.602-33.2 32.8 0 0.2 0 0.602 0 0.8 0.2 17.8 14.6 32.2 32.4 32.8 0.6 0 1 0 1.6 0 18-0.4 32.4-15 32.4-33.2-0.2-18.4-14.998-33.2-33.2-33.2zM275.302 785.8c-25.8 0-51.8-10-71.2-29.6v0c-19.8-19.8-29.602-45.8-29.602-71.6s10-51.8 29.602-71.2c19.6-19.6 45.6-29.6 71.398-29.6h0.202c25.6 0 51.798 10 71.4 29.6 19.6 19.6 29.6 45.6 29.6 71.4 0 25.8-9.8 51.8-29.6 71.4-20 19.8-46.202 29.6-71.8 29.6zM304.5 655.8c-8-8-18.398-12-29.2-12-10.6 0-20.8 4-29 12-8 8-12 18.4-12 28.8 0 10.8 4 21 12 29.2v0c8 8 18.4 12 28.8 12 10.798 0 21-4 29.2-12 8-8 12-18.4 12-29 0.002-10.6-3.8-21-11.8-29z" />
<glyph unicode="&#xe648;" d="M27.608 411.822c1.4-20.8 1.6-41.4 1.8-62.2 0-20.8 0.2-41.4-0.8-62.202-0.2-3.2-2.798-5.6-6-5.4-3 0.202-5.4 2.602-5.4 5.4-1.2 20.8-1.6 41.4-1.798 62.202 0 20.798-0.202 41.398 0.798 62.2 0.202 3.2 2.8 5.6 6 5.4 3-0.2 5.2-2.4 5.4-5.4zM69.81 453.822c3.398-34.4 4.2-68.8 4.2-103.4 0-17.2-0.2-34.4-0.8-51.6-0.6-17.2-1.6-34.4-3.398-51.6-0.4-3.202-3.202-5.4-6.4-5.202-2.8 0.202-5 2.4-5.202 5.202-1.798 17.2-2.798 34.4-3.398 51.6-0.602 17.2-0.8 34.4-0.8 51.6 0.2 34.4 1 68.8 4.2 103.4 0.4 3.2 3.202 5.4 6.202 5.2s5.194-2.4 5.396-5.2zM115.608 467.222c3.202-38.2 4-76.4 4.202-114.598 0-38.202-0.8-76.4-4.202-114.602-0.2-3.2-3.2-5.398-6.2-5.2-2.8 0.2-5 2.4-5.202 5.2-3.6 38.202-4.398 76.4-4.2 114.602 0.2 38.2 1 76.398 4.2 114.598 0.202 3.2 3 5.6 6.202 5.2 2.8-0.2 5-2.4 5.2-5.2zM157.81 453.822c2.798-18 4.2-36 5.2-53.8 1-18 1.4-36 1.6-53.798l-0.4-27c-0.398-9-0.398-18-1.2-27-1-18-2.4-36-5.2-53.8-0.4-3.2-3.4-5.4-6.602-4.798-2.6 0.398-4.398 2.398-4.798 4.798-2.8 18-4.202 36-5.202 53.8-0.6 9-0.798 18-1.2 27l-0.4 27c0.202 18 0.4 36 1.6 53.798 1 18 2.4 36 5.202 53.8 0.4 3.2 3.4 5.4 6.6 4.8 2.598-0.2 4.398-2.2 4.8-4.8zM199.81 492.222c2.398-21.2 3.6-42.4 4.6-63.598 1-21.202 1.4-42.4 1.6-63.602 0.2-21.2-0.2-42.398-1-63.6-1-21.2-2.2-42.4-5.2-63.6-0.4-3.2-3.4-5.4-6.602-5-2.6 0.4-4.6 2.4-5 5-2.798 21.2-4.2 42.4-5.2 63.6-0.8 21.202-1.2 42.4-1 63.6 0.2 21.202 0.6 42.4 1.6 63.602 1 21.198 2.202 42.398 4.6 63.598 0.4 3.2 3.202 5.4 6.4 5.2 3-0.4 5-2.6 5.202-5.2zM242.008 545.822c2-25.6 3.2-51.2 4-77 0.8-25.598 1.4-51.198 1.6-77 0.202-25.6 0.202-51.2-0.6-77-0.8-25.6-2-51.2-5-77-0.4-3.2-3.2-5.4-6.4-5-2.798 0.4-4.798 2.4-5 5-2.798 25.6-4 51.2-5 77-0.798 25.6-0.798 51.2-0.6 77 0.2 25.6 0.6 51.2 1.6 77 1 25.6 2 51.2 4 77 0.202 3.2 3 5.6 6.202 5.2 2.798-0.2 5-2.4 5.198-5.2zM289.81 576.422c3.398-56.6 4.6-113 5-169.6 0.2-28.2 0.398-56.6-0.4-84.8-0.8-28.2-1.8-56.6-4.6-84.798-0.4-3.202-3.202-5.4-6.202-5.202-2.798 0.202-5 2.4-5.2 5.202-2.8 28.2-3.8 56.6-4.6 84.798-0.8 28.202-0.602 56.602-0.4 84.8 0.4 56.6 1.6 113 5 169.6 0.2 3.2 3 5.6 6 5.4 3-0.2 5.2-2.6 5.402-5.4zM333.81 587.822c1.398-29.2 2.398-58.4 2.798-87.6 0.8-29.2 1.202-58.4 1.202-87.598 0.398-58.4 0.2-116.8-4.202-175.4-0.2-3.202-3-5.6-6.2-5.4-2.8 0.2-5.202 2.6-5.4 5.4-4.4 58.4-4.6 116.798-4.2 175.4 0.2 29.2 0.6 58.398 1.2 87.598s1.4 58.4 2.8 87.6c0.2 3.2 2.798 5.6 6 5.4 3.6 0 6.002-2.4 6.002-5.4zM374.008 576.422c1.8-28.2 3-56.6 4-84.8 0.8-28.2 1.4-56.6 1.6-84.8 0.202-28.2 0.4-56.6-0.4-84.8-0.798-28.2-2-56.6-5.2-84.798-0.4-3.202-3.2-5.4-6.4-5.202-2.798 0.202-4.798 2.4-5.2 5.202-3 28.2-4.4 56.6-5.202 84.798-0.798 28.202-0.6 56.602-0.398 84.8 0.2 28.2 0.798 56.6 1.6 84.8 1 28.2 2.2 56.6 4 84.8 0.2 3.2 3 5.6 6.2 5.4 3-0.2 5.202-2.6 5.4-5.4zM418.008 576.422c2.2-28.2 3.2-56.4 4.2-84.6 0.8-28.2 1.4-56.4 1.8-84.598 0.2-28.202 0.4-56.4-0.4-84.6-0.798-28.202-2.2-56.4-5.6-84.602-0.4-3.2-3.2-5.398-6.4-5-2.798 0.4-4.798 2.4-5 5-3.4 28.202-4.6 56.4-5.6 84.602-0.8 28.2-0.6 56.398-0.4 84.6 0.202 28.2 0.8 56.4 1.8 84.598 1 28.2 2.2 56.4 4.2 84.6 0.202 3.2 3 5.6 6.202 5.4 2.798-0.4 5-2.6 5.198-5.4zM464.008 608.822c1.8-31 3.2-62 4-93 1-31 1.4-62 1.8-93 0.398-62 1.398-123.8-5.8-185.8-0.4-3.2-3.2-5.398-6.4-5-2.798 0.4-4.798 2.4-5 5-7.4 62-6.2 123.8-5.798 185.8 0.398 31 1 62 1.798 93 1 31 2.202 62 4 93 0.202 3.2 3 5.6 6 5.4 3 0 5.202-2.4 5.4-5.4zM509.008 626.422c1.2-32.4 2.2-64.8 2.8-97.4l0.798-48.6 0.4-48.6c0.2-32.4 0.6-64.8 0.2-97.4-0.398-32.4-1.6-64.798-4-97.4-0.2-3.2-3-5.6-6.2-5.2-2.8 0.2-5 2.6-5.2 5.2-2.4 32.4-3.602 64.8-4 97.4-0.4 32.4 0 64.8 0.2 97.4l0.4 48.6 0.798 48.6c0.4 32.4 1.4 64.8 2.8 97.4 0.2 3.2 2.8 5.6 6 5.6 2.404-0.2 4.806-2.6 5.004-5.6zM617.208 634.222c51.8 0 101.8-25.4 108.6-29 32.6-21.6 56-50.6 69.4-86 10.202-26.6 10.8-47.6 10.8-49.2 0-9.8 4.6-18.8 12.6-24.6 5-3.6 11-5.4 17.2-5.4 3.4 0 7 0.602 10.4 1.8 17.202 6.2 33 9.2 47 9.2 29.6 0 51.8-14 68-43 11.6-20.6 16-41.798 17.202-48.6-1.602-38.2-14.602-65-38.4-79.6-19.8-12.2-41.6-12.8-45.8-12.8-0.2 0-0.6 0-0.6 0-0.6 0-0.6 0-1.2 0l-325.6 2.202-0.602 354.2c14.8 7.198 31.8 10.798 51 10.798M617.208 664.222c-27.6 0-56-6.2-81-23.6l0.8-401 355.4-2.4c0 0 0.798 0 2 0 15.398 0 110.6 4.798 114.2 124.2 0 0-15.6 119.8-115.4 119.8-16.6 0-35.6-3.4-57-11 0 0 0 98.8-95 160.8 0 0-59.6 33.2-124 33.2v0z" />
</font>
</defs>
</svg>
